<svg xmlns="http://www.w3.org/2000/svg" width="18.342" height="19.85" viewBox="0 0 18.342 19.85"><g transform="translate(-886.565 -2930.788)"><path d="M132.582,11.445c-.05,0-.1,0-.151-.007a1.537,1.537,0,0,1-1.381-1.679l.814-8.37a1.537,1.537,0,0,1,3.06.3l-.815,8.37a1.537,1.537,0,0,1-1.528,1.389" transform="translate(755.523 2930.787)" fill="#442308"/><path d="M148.77,21.681a1.382,1.382,0,0,1-.171-.01l-7.227-.8a1.537,1.537,0,1,1,.339-3.056l7.227.8a1.537,1.537,0,0,1-.168,3.066" transform="translate(754.601 2928.957)" fill="#ef658a"/><path d="M143.876,8.371a1.537,1.537,0,0,1-1.211-2.482l3.284-4.212a1.537,1.537,0,0,1,2.425,1.89L145.09,7.779a1.537,1.537,0,0,1-1.214.592" transform="translate(754.361 2930.676)" fill="#15aaaa"/></g></svg>