<svg xmlns="http://www.w3.org/2000/svg" width="14" height="14" viewBox="0 0 14 14"><g transform="translate(-0.288 -0.263)"><g transform="translate(0 0.263)"><rect width="14" height="14" transform="translate(0.288)" fill="none"/></g><g transform="translate(2.123 0.601)"><path d="M19.123,11.213a.91.91,0,1,1-.91.91.879.879,0,0,1,.91-.91m0-1.213a2.123,2.123,0,1,0,2.123,2.123A2.123,2.123,0,0,0,19.123,10Z" transform="translate(-13.968 -7.574)"/><path d="M12.155,3.213A4.011,4.011,0,0,1,16.1,7.458c0,2.426-2.608,5.064-3.942,6.429-1.334-1.365-3.942-4.155-3.942-6.429a4.1,4.1,0,0,1,3.942-4.246m0-1.213A5.223,5.223,0,0,0,7,7.458c0,3,3.487,6.459,4.731,7.7a.576.576,0,0,0,.849,0c1.243-1.243,4.731-4.64,4.731-7.7A5.187,5.187,0,0,0,12.155,2Z" transform="translate(-7 -2)"/></g></g></svg>