<svg xmlns="http://www.w3.org/2000/svg" width="46.555" height="64.198" viewBox="0 0 46.555 64.198"><g transform="translate(-35.378 -2642.989)"><path d="M46.818,27.255a3.931,3.931,0,0,1-3.543-5.623l9.265-19.4a3.929,3.929,0,1,1,7.09,3.388L50.366,25.018a3.929,3.929,0,0,1-3.547,2.237" transform="translate(-7.514 2642.99)" fill="#ef658a"/><path d="M70.093,45.71a3.909,3.909,0,0,1-1.74-.409L51.7,37.063a3.929,3.929,0,1,1,3.484-7.043l16.657,8.239a3.93,3.93,0,0,1-1.745,7.452" transform="translate(-3.383 2661.477)" fill="#ef658a"/><path d="M63.527,23.324a3.929,3.929,0,0,1-2.09-7.257L73,8.816a3.928,3.928,0,1,1,4.173,6.656L65.609,22.723a3.9,3.9,0,0,1-2.082.6" transform="translate(2.914 2648.119)" fill="#ef658a"/></g></svg>