<svg xmlns="http://www.w3.org/2000/svg" xmlns:xlink="http://www.w3.org/1999/xlink" width="242" height="306" viewBox="0 0 242 306"><defs><clipPath id="a"><rect width="242" height="306" transform="translate(1678 3447)" fill="#fff" stroke="#707070" stroke-width="1"/></clipPath><clipPath id="b"><rect width="302" height="306" fill="#ef658a"/></clipPath></defs><g transform="translate(-1678 -3447)" clip-path="url(#a)"><g transform="translate(1682.252 3451)" opacity="0.231"><g transform="translate(-4.252 -4)" clip-path="url(#b)"><path d="M145.606-3c81.942,0,148.606,66.664,148.606,148.606S227.548,294.212,145.606,294.212-3,227.548-3,145.606,63.664-3,145.606-3Zm0,291.212c78.633,0,142.606-63.973,142.606-142.606S224.239,3,145.606,3,3,66.973,3,145.606,66.973,288.212,145.606,288.212Z" transform="translate(7.901 7.605)" fill="#ef658a"/><path d="M62.213,61.214,52.961,48.982a2.313,2.313,0,0,1,.379-3.55l5.57-4.215c3.7-2.8,6.809-2.843,8.877-.107,1.378,1.824,1.209,3.7-.287,5.674,2.853-1.283,5.135-.583,6.612,1.368,2.392,3.166,1.5,6.193-3.11,9.679l-5.27,3.984a2.313,2.313,0,0,1-3.519-.6m1.173-12.395c1.723-1.3,2.078-2.886,1.045-4.254-1.053-1.39-2.485-1.385-4.281-.025l-3.039,2.3,3.238,4.28Zm5.261,6.534c2.229-1.687,2.643-3.034,1.4-4.681-1.13-1.493-2.655-1.456-4.806.172L62,53.295,65.405,57.8Z" transform="translate(28.185 22.032)" fill="#ef658a"/><path d="M71.493,53.61l-.7-19.418c-.074-.9.326-1.658,2.283-2.495s2.724-.574,3.322.1L90.081,45.636c.3.286-.478,1.792-1.76,2.342-.935.4-2.112.313-3.356-.984l-2.4-2.463L75.7,47.462l.117,3.5c.11,1.714-.581,2.6-1.488,2.984-1.227.524-2.795.088-2.84-.341m8.785-11.934-5.5-5.763.362,7.958Z" transform="translate(36.371 18.527)" fill="#ef658a"/><path d="M85.11,30.2a1.826,1.826,0,0,1,1.564-2.44l.654-.118A1.831,1.831,0,0,1,89.7,29.381l1.271,7.095L96.223,27.6a3,3,0,0,1,2.232-1.947c1.719-.309,3.007,1.1,2.925,1.378l-5.565,9.448,8.829,7.323c.206.253-.615,1.98-2.394,2.3a2.979,2.979,0,0,1-2.757-.991l-8.174-6.728,1.3,7.282A1.843,1.843,0,0,1,91,48.117l-.654.117a1.842,1.842,0,0,1-2.314-1.746Z" transform="translate(42.688 16.062)" fill="#ef658a"/><path d="M102.137,43.1l1.046-15.33a2.316,2.316,0,0,1,2.616-2.43l11.4.778c1.457.1,2.111.781,2.027,2.016l-.01.159c-.087,1.267-.824,1.821-2.28,1.723l-9.186-.629-.3,4.34,6.712.457c1.521.105,2.117.717,2.035,1.889l-.006.1c-.084,1.237-.789,1.76-2.277,1.658l-6.714-.457-.328,4.782,9.344.638c1.456.1,2.085.683,2,1.886l-.01.16c-.089,1.3-.8,1.886-2.255,1.785L104.4,45.835a2.291,2.291,0,0,1-2.264-2.731" transform="translate(50.251 15.941)" fill="#ef658a"/><path d="M121.739,29.515a2.376,2.376,0,0,1,3.125-1.724l4.954,1.6c6.525,2.108,9.3,7.042,7.35,13.084-1.962,6.073-7.232,8.539-13.816,6.412l-4.652-1.5a2.588,2.588,0,0,1-1.688-3.247Zm10.978,11.556c1.221-3.778-.413-6.674-4.249-7.912l-2.75-.89L121.863,44.2l2.69.87c3.866,1.251,6.925-.164,8.164-4" transform="translate(56.79 16.968)" fill="#ef658a"/><path d="M81.38,163.141a2.313,2.313,0,0,1,3.089-1.789l10.092,3.03c1.427.429,1.923,1.206,1.567,2.394l-.055.18c-.365,1.215-1.216,1.625-2.645,1.2L85.4,165.741l-1.478,4.925L89.7,172.4c1.459.437,1.916,1.237,1.586,2.33l-.036.123c-.358,1.185-1.2,1.563-2.628,1.134L83,174.3l-1.635,5.443a1.873,1.873,0,0,1-2.6,1.472l-.7-.209c-1.215-.365-1.61-1.478-1.136-3.059Z" transform="translate(39.005 76.127)" fill="#ef658a"/><path d="M92.449,182.325l1.046-15.457a2.318,2.318,0,0,1,2.616-2.433l6.017.405c5.322.364,7.9,2.765,7.613,6.946a5.579,5.579,0,0,1-4.731,5.5,5.308,5.308,0,0,1-1.029.12l4.943,6.89c.175.235-.812,1.662-2.808,1.528-1.361-.092-2.052-.713-2.945-2.109l-4.117-5.91L97.44,177.7l-.365,5.382a1.892,1.892,0,0,1-2.2,1.981l-.632-.04c-1.267-.085-1.9-1.052-1.791-2.7m8.7-7.718c2.5.172,3.785-.921,3.915-2.818.139-2.027-1.059-3.16-3.593-3.332l-3.453-.234-.416,6.144Z" transform="translate(45.959 77.549)" fill="#ef658a"/><path d="M110.711,183.312,108.2,168.151a2.312,2.312,0,0,1,1.985-2.967l11.275-1.869c1.439-.24,2.232.271,2.437,1.495l.026.157c.206,1.251-.385,1.961-1.824,2.2l-9.083,1.5.71,4.29,6.639-1.1c1.5-.245,2.225.214,2.417,1.374l.014.092c.2,1.221-.362,1.895-1.834,2.14l-6.639,1.1.785,4.731,9.238-1.534c1.44-.238,2.188.186,2.385,1.377l.025.156c.214,1.283-.341,2.022-1.781,2.258l-11.432,1.893a2.289,2.289,0,0,1-2.832-2.134" transform="translate(52.917 77.031)" fill="#ef658a"/><path d="M126.843,179.378a2.819,2.819,0,0,1,.765-2.818,8.379,8.379,0,0,0,6.688.238c2.261-.931,3.127-2.247,2.524-3.714-.7-1.7-2.753-1.271-5.192-.853-3.3.564-6.871.732-8.477-3.173-1.447-3.525.417-7,5-8.886a10.1,10.1,0,0,1,6.04-.837,2.822,2.822,0,0,1,2.179,1.544,3.045,3.045,0,0,1-.775,2.959,7.354,7.354,0,0,0-6-.244c-2.053.846-2.938,2.2-2.369,3.584.675,1.643,2.475,1.177,5.04.743,3.75-.652,7.324-.472,8.8,3.111,1.557,3.788-.328,7.137-5.319,9.187-2.936,1.208-5.306,1.29-6.851.788a2.94,2.94,0,0,1-2.043-1.631" transform="translate(59.35 75.218)" fill="#ef658a"/><path d="M144.906,174.815l-9.715-13.382a1.826,1.826,0,0,1,.342-2.877l.538-.392a1.854,1.854,0,0,1,2.921.509l3.672,5.059,7.167-5.2-3.675-5.06c-.838-1.159-.708-2.114.319-2.858l.566-.41a1.84,1.84,0,0,1,2.892.527l9.715,13.38a1.858,1.858,0,0,1-.392,2.916l-.567.408c-1.027.746-1.994.548-2.815-.583l-3.711-5.111-7.166,5.2,3.71,5.111a1.864,1.864,0,0,1-.418,2.934l-.538.394a1.841,1.841,0,0,1-2.843-.566" transform="translate(64.656 71.032)" fill="#ef658a"/><path d="M40.823,117.923q-2.195-1.4-4.388-2.83a47.626,47.626,0,0,1,8.4-11.636c3.356-3.408,6.36-5.208,9.013-5.371,4.323-.267,6.48,1.694,6.483,5.975q-.006,2.686-3.343,13.31c-2.221,7.07-3.336,11.513-3.342,13.357a11.279,11.279,0,0,0,.338,3.528c.228.506.717.736,1.486.69q6.136-.4,12.656-6.121c4.34-3.818,7.166-7.907,8.474-12.174q2.364-7.876,4.724-15.768a9.2,9.2,0,0,1,2.3-3.933,5.383,5.383,0,0,1,3.006-1.716,2.622,2.622,0,0,1,2.361.745,3.6,3.6,0,0,1,.91,2.643,12.339,12.339,0,0,1-.606,3.664q-2.565,8.621-5.133,17.223A127.185,127.185,0,0,1,71,149.793a65.6,65.6,0,0,1,13.841,1.518q-.271,2.125-.541,4.247a117.291,117.291,0,0,0-16.47-.68,78.417,78.417,0,0,1-13.4,15.94c-4.57,4-8.552,6.018-11.949,6.122s-5.941-.632-7.63-2.13a7.923,7.923,0,0,1-2.531-6.226,11.091,11.091,0,0,1,2.7-7.215,20.621,20.621,0,0,1,7.225-5.4A68.549,68.549,0,0,1,63.3,149.973a83.312,83.312,0,0,0,4.524-8.8c2.382-5.019,3.665-8.18,3.847-9.443C63.712,140,56.687,144.247,50.612,144.566a5.508,5.508,0,0,1-5.4-2.553,12.935,12.935,0,0,1-1.688-6.848q0-4.112,2.8-14.181c1.866-6.727,2.8-10.561,2.8-11.476s-.19-1.371-.573-1.353a2.934,2.934,0,0,0-1.247.392,4.787,4.787,0,0,0-1.317,1.1q-.641.74-1.183,1.39a12.508,12.508,0,0,0-1.182,1.795l-.977,1.752c-.945,1.672-1.553,2.779-1.824,3.337m19.511,37.588a55.83,55.83,0,0,0-11.141,2.866c-7.3,2.632-10.932,5.34-10.935,8.437,0,1.838,1.033,2.747,3.105,2.691s5.443-1.817,10.126-5.385,7.63-6.474,8.844-8.609" transform="translate(19.33 46.886)" fill="#ef658a"/><path d="M125.327,90.342q-9.045,28.109-9.047,33.786c0,1.592.358,2.33,1.081,2.216q2.972-.483,8.64-10.946,1.452,1.3,2.9,2.6a52.993,52.993,0,0,1-8.473,13.118q-4.894,5.454-7.93,5.945c-4.186.675-6.28-1.34-6.277-6.013a52.8,52.8,0,0,1,2.293-13.659q2.292-8.21,2.3-8.282c-.228.483-.771,1.607-1.62,3.358s-1.486,3.063-1.892,3.923-1.068,2.183-1.991,3.939-1.691,3.154-2.3,4.173-1.416,2.325-2.428,3.929a40.368,40.368,0,0,1-2.7,3.855c-.792.971-1.72,2.05-2.8,3.235a19.606,19.606,0,0,1-3.1,2.822,15.059,15.059,0,0,1-6.617,2.923c-5.355.773-8.034-2.13-8.033-8.652q0-4.478,2.9-14.325,2.894-9.863,2.9-11.536c0-1.124-.315-1.635-.947-1.545-1.8.257-4.3,3.772-7.493,10.513q-2.195-1.164-4.388-2.343,9.248-17.521,17.823-18.813a5.312,5.312,0,0,1,4.522,1.076c1.123,1,1.652,2.708,1.586,5.135s-1.17,6.9-3.307,13.419-3.206,11.411-3.208,14.7q0,2.686,2.228,2.358c1.71-.261,3.744-1.768,6.111-4.55a66.688,66.688,0,0,0,6.851-9.919q5.27-9.045,10.937-21.013.911-1.937,1.821-3.874,4.829-.777,9.655-1.554" transform="translate(36.158 44.734)" fill="#ef658a"/><path d="M155.374,130.413q-5,.569-9.991,1.219.641-2.545,1.283-5.091.669-3,2.428-8.819c2.612-8.443,3.916-14.907,3.915-19.442.006-1.941-.737-2.825-2.226-2.643-1.848.225-4.014,1.706-6.516,4.444a62.592,62.592,0,0,0-7.189,9.823q-5.738,9.543-11.341,20.92-.944,1.937-1.89,3.871-4.757.725-9.518,1.482,1.048-3.675,2.091-7.347,5.876-20.341,5.874-23.95c0-2.42-.371-3.56-1.081-3.454-1.3.206-2.854,2.157-4.658,5.877-.4.863-.745,1.553-1.011,2.062s-.576,1.134-.91,1.863-.553,1.172-.642,1.332l-4.524-2.192q5.272-10.324,9.655-15.526t8.978-5.887a3.823,3.823,0,0,1,3.612,1.408,6.346,6.346,0,0,1,1.519,4.371,37.04,37.04,0,0,1-.27,4.743c-.182,1.4-.388,2.681-.607,3.858s-.547,2.6-.947,4.248-.732,2.913-.978,3.8-.573,2.079-.977,3.58-.655,2.388-.743,2.649c.9-1.876,2.355-4.711,4.388-8.483s3.363-6.169,4.016-7.18,1.521-2.332,2.6-3.945a38.7,38.7,0,0,1,2.87-3.861q1.242-1.435,3-3.232a20.373,20.373,0,0,1,3.306-2.809,17.385,17.385,0,0,1,7.662-2.922c2.593-.289,4.554.313,5.909,1.8a7.845,7.845,0,0,1,2.026,5.472,28.338,28.338,0,0,1-.912,6.848q-.909,3.6-2.532,8.434c-1.081,3.226-1.776,5.4-2.092,6.534,4.32-8.236,7.63-14.017,9.924-17.406q9.378-13.744,18.563-14.152c3.019-.134,5.18.609,6.48,2.164a9.765,9.765,0,0,1,1.957,6.454q0,4.106-3.172,13.7c-2.11,6.408-3.18,10.349-3.173,11.792s.4,2.15,1.218,2.121c1.8-.059,4.649-3.31,8.572-9.671q1.45,1.483,2.9,2.974a43.039,43.039,0,0,1-8.776,12.253c-3.19,2.948-5.925,4.492-8.2,4.6s-3.854-.61-4.757-2.2a11.527,11.527,0,0,1-1.351-5.776q0-3.4,2.7-12.188c1.8-5.86,2.7-10.314,2.7-13.4q0-2.92-2.365-2.783c-4.5.263-11,8-19.507,23.438-3.466,6.27-5.9,11.027-7.29,14.223" transform="translate(53.502 41.345)" fill="#ef658a"/><path d="M91.73,70.913A2.148,2.148,0,0,1,89.8,67.842l5.057-10.588A2.146,2.146,0,0,1,98.726,59.1L93.668,69.691a2.146,2.146,0,0,1-1.938,1.222" transform="translate(44.696 29.537)" fill="#ef658a"/><path d="M104.889,83.02a2.131,2.131,0,0,1-.949-.224l-9.093-4.5a2.145,2.145,0,0,1,1.9-3.845l9.093,4.5a2.145,2.145,0,0,1-.952,4.068" transform="translate(46.498 37.598)" fill="#ef658a"/><path d="M102,69.331a2.145,2.145,0,0,1-1.141-3.962l6.314-3.959a2.145,2.145,0,1,1,2.28,3.635L103.135,69a2.134,2.134,0,0,1-1.138.328" transform="translate(49.243 31.774)" fill="#ef658a"/></g></g></g></svg>