<svg xmlns="http://www.w3.org/2000/svg" xmlns:xlink="http://www.w3.org/1999/xlink" width="224" height="320" viewBox="0 0 224 320"><defs><clipPath id="a"><rect width="224" height="320" transform="translate(1696 296)" fill="#fff" stroke="#707070" stroke-width="1"/></clipPath><clipPath id="b"><rect width="327" height="329" transform="translate(409 687.733)" fill="#ef658a" stroke="#3b1d05" stroke-width="1" opacity="0.815"/></clipPath><clipPath id="c"><rect width="168.18" height="196.683" fill="#ef658a"/></clipPath></defs><g transform="translate(-1696 -296)" clip-path="url(#a)"><g transform="translate(1287 -389.733)" opacity="0.253" clip-path="url(#b)"><g transform="translate(417.791 693.606)"><g transform="translate(0 0)"><g transform="translate(70.918 55.117)"><g transform="translate(0 0)" clip-path="url(#c)"><path d="M166.724,75.014A30.726,30.726,0,0,0,138.837,53.82a23.85,23.85,0,0,0-2.25-12.954c-3.263-6.765-12.5-14.1-16.435-12.866-3.437,1.075-4.741,6.133-3.073,6.315a18.076,18.076,0,0,1,13.48,9.457c6.522,12.259-9.613,50.713-71.689,60.343a3.343,3.343,0,0,0-2.778,3.918,3.429,3.429,0,0,0,3.928,2.675A140.584,140.584,0,0,0,90.8,102.488c15.985-6.408,26.449-14.674,33.034-21.6a62.376,62.376,0,0,0,13.334-20.393,23.989,23.989,0,0,1,23.182,16.578,23.844,23.844,0,0,1-29.023,30.256,3.343,3.343,0,0,0-3.965,1.915,54.918,54.918,0,0,1-72.228,28.953,3.343,3.343,0,0,0-4.192,1.355,23.874,23.874,0,0,1-41.884-1.831,23.968,23.968,0,0,1,6.825-29.277,3.517,3.517,0,0,0,1.3-1.892,3.353,3.353,0,0,0-1.61-3.759,17.159,17.159,0,0,1,.2-30.073l.145-.078a14.04,14.04,0,0,1,9.059-1.3c3.728.684,6.682,1.04,14.949.692,8.5-.357,15.74-1.324,21.647-4.975a3.348,3.348,0,1,0-3.39-5.773c-7.727,3.916-7,3.539-18.236,4.049-9.819.443-13.4-.445-15.827-1a31.614,31.614,0,0,1,23.4-51.655C45.91,18.2,47.326,26.77,51,31.523c3,3.887,8.316.045,5.484-3.835s-3.767-11.313-1.576-15.533c.18-.346.276-.486.275-.484h0a3.347,3.347,0,0,0-2.191-5.456A38.611,38.611,0,0,0,29.571,11a37.954,37.954,0,0,0-16.23,18.2,38.575,38.575,0,0,0,3.119,35.962,24.275,24.275,0,0,0-3.843,1.657,23.857,23.857,0,0,0-4.054,39.222,30.725,30.725,0,0,0-5.524,34.588,30.4,30.4,0,0,0,15.834,14.854c.835.344,1.678.646,2.531.914l8.524,1.4a30.269,30.269,0,0,0,7.257-.747l33.342,34.5a2.818,2.818,0,0,0,2.872,1.377c17.965-2.773,23.955-2.891,40.864-9.67s21.369-10.711,36.277-21.114a2.816,2.816,0,0,0,1.124-2.979l.109-47.79a30.321,30.321,0,0,0,7.366-5.37l5.2-6.9c.432-.783.835-1.585,1.2-2.409a30.385,30.385,0,0,0,1.189-21.678M74.879,188.5l-32.2-33.331,4.918-2.6a30.675,30.675,0,0,0,2.755-2.131l32.1,36.685q-3.779.748-7.582,1.373m13.3-2.576L54.1,146.619c.331-.406.676-.8.989-1.228.713.268,1.428.52,2.146.762l8.482,2.207a60.65,60.65,0,0,0,8.865.966l22.305,34.229c-1.819.624-7.144,2.048-8.7,2.367m14.062-4.173-21.192-32.6,4.6-.4a61.738,61.738,0,0,0,10.7-2.57l13.193,32.891q-3.628,1.406-7.3,2.688m12.528-4.782L101.6,144.133l1.238-.5-.016-.039a61.707,61.707,0,0,0,9.756-5.654l2.248-1.8,7.079,37.72q-3.54,1.608-7.136,3.1m15.813-7.3s-2.316,1.208-3.554,1.806l-7.353-39.44a60.97,60.97,0,0,0,7.061-8.131l4.608-7.457c.273-.52.534-1.048.794-1.576l2.706,52.329c-1.407.848-2.838,1.65-4.262,2.469m9.231-5.549-2.331-49.256a30.516,30.516,0,0,0,5.26-.429l3.739-1.062-.242,46.506q-3.175,2.176-6.426,4.241" transform="translate(0 3.723)" fill="#ef658a"/><path d="M46.818,27.255a3.931,3.931,0,0,1-3.543-5.623l9.265-19.4a3.929,3.929,0,1,1,7.09,3.388L50.366,25.018a3.929,3.929,0,0,1-3.547,2.237" transform="translate(26.777 -0.001)" fill="#ef658a"/><path d="M70.093,45.71a3.909,3.909,0,0,1-1.74-.409L51.7,37.063a3.929,3.929,0,1,1,3.484-7.043l16.657,8.239a3.93,3.93,0,0,1-1.745,7.452" transform="translate(30.908 18.486)" fill="#ef658a"/><path d="M63.527,23.324a3.929,3.929,0,0,1-2.09-7.257L73,8.816a3.928,3.928,0,1,1,4.173,6.656L65.609,22.723a3.9,3.9,0,0,1-2.082.6" transform="translate(37.205 5.129)" fill="#ef658a"/></g></g><path d="M154.5,7C73.168,7,7,72.944,7,154S73.168,301,154.5,301,302,235.056,302,154,235.832,7,154.5,7m0-7C239.828,0,309,68.948,309,154S239.828,308,154.5,308,0,239.052,0,154,69.172,0,154.5,0Z" transform="translate(0.209 0.126)" fill="#df6e8a"/></g></g></g></g></svg>