<svg xmlns="http://www.w3.org/2000/svg" xmlns:xlink="http://www.w3.org/1999/xlink" width="331" height="368" viewBox="0 0 331 368"><defs><clipPath id="a"><rect width="331" height="368" transform="translate(521 687.488)" fill="#3b1d05" stroke="#3b1d05" stroke-width="1" opacity="0.815"/></clipPath><clipPath id="b"><rect width="259.486" height="303.465" fill="#3b1d05"/></clipPath></defs><g transform="translate(-521 -687.488)" clip-path="url(#a)"><g transform="translate(362.395 696.039)"><g transform="translate(0 0)"><g transform="translate(108.783 85.868)"><g transform="translate(0 0)" clip-path="url(#b)"><path d="M257.242,112.5a47.408,47.408,0,0,0-43.028-32.7,36.8,36.8,0,0,0-3.471-19.987c-5.035-10.438-19.29-21.751-25.357-19.851-5.3,1.659-7.316,9.463-4.742,9.744,8.218.9,16.473,6.461,20.8,14.591,10.062,18.914-14.831,78.245-110.61,93.1a5.157,5.157,0,0,0-4.286,6.045,5.29,5.29,0,0,0,6.06,4.128,216.908,216.908,0,0,0,47.5-12.684c24.663-9.887,40.808-22.641,50.968-33.332,12.641-13.3,18.353-25.578,20.573-31.465a37.013,37.013,0,0,1,35.768,25.578,36.79,36.79,0,0,1-44.78,46.682,5.158,5.158,0,0,0-6.118,2.955A84.734,84.734,0,0,1,85.073,209.983a5.158,5.158,0,0,0-6.468,2.09,36.835,36.835,0,0,1-64.624-2.824,36.981,36.981,0,0,1,10.531-45.171,5.426,5.426,0,0,0,2.007-2.92,5.174,5.174,0,0,0-2.484-5.8,26.475,26.475,0,0,1,.311-46.4l.223-.12a21.663,21.663,0,0,1,13.977-2.007c5.752,1.055,10.31,1.6,23.064,1.068,13.122-.551,24.285-2.043,33.4-7.676a5.166,5.166,0,1,0-5.23-8.907c-11.922,6.042-10.8,5.461-28.137,6.248-15.15.684-20.681-.687-24.42-1.549a48.777,48.777,0,0,1,36.1-79.7c-2.486,8.526-.3,21.751,5.363,29.084,4.629,6,12.832.07,8.461-5.917s-5.812-17.455-2.431-23.967c.278-.534.426-.749.424-.747h-.005a5.164,5.164,0,0,0-3.381-8.418,59.574,59.574,0,0,0-36.126,7.383A58.56,58.56,0,0,0,20.584,41.819,59.518,59.518,0,0,0,25.4,97.305a37.454,37.454,0,0,0-5.93,2.556,36.81,36.81,0,0,0-6.255,60.517,47.407,47.407,0,0,0-8.523,53.366,46.9,46.9,0,0,0,24.43,22.919c1.288.531,2.589,1,3.9,1.411l13.152,2.158a46.7,46.7,0,0,0,11.2-1.153l51.444,53.226a4.348,4.348,0,0,0,4.431,2.125c27.718-4.278,36.961-4.461,63.05-14.919s32.971-16.526,55.973-32.578a4.344,4.344,0,0,0,1.734-4.6l.168-73.737a46.783,46.783,0,0,0,11.365-8.285l8.02-10.649c.667-1.208,1.288-2.446,1.85-3.717a46.881,46.881,0,0,0,1.835-33.447M115.533,287.6,65.858,236.172l7.589-4a47.332,47.332,0,0,0,4.25-3.288l49.534,56.6q-5.831,1.154-11.7,2.118m20.526-3.975L83.471,222.982c.511-.627,1.043-1.241,1.526-1.895,1.1.413,2.2.8,3.311,1.175l13.087,3.406a93.578,93.578,0,0,0,13.679,1.491l34.415,52.813c-2.807.962-11.022,3.16-13.431,3.651m21.7-6.438-32.7-50.306,7.1-.624a95.259,95.259,0,0,0,16.508-3.965l20.355,50.747q-5.6,2.169-11.268,4.148m19.33-7.378-20.318-50.66,1.91-.764-.025-.06A95.206,95.206,0,0,0,173.7,209.6l3.469-2.777,10.922,58.2q-5.462,2.481-11.01,4.787m24.4-11.268s-3.574,1.865-5.483,2.787l-11.345-60.852a94.073,94.073,0,0,0,10.894-12.546l7.11-11.506c.421-.8.825-1.617,1.226-2.431l4.175,80.739c-2.17,1.308-4.378,2.546-6.576,3.809m14.243-8.561-3.6-76a47.084,47.084,0,0,0,8.115-.662l5.769-1.639-.373,71.754q-4.9,3.357-9.914,6.544" transform="translate(-0.001 8.981)" fill="#3b1d05"/><path d="M48.951,42.053a6.065,6.065,0,0,1-5.466-8.676L57.78,3.45A6.062,6.062,0,1,1,68.719,8.678L54.424,38.6a6.061,6.061,0,0,1-5.473,3.451" transform="translate(64.601 -0.002)" fill="#3b1d05"/><path d="M81.269,54.452a6.031,6.031,0,0,1-2.684-.632l-25.7-12.711A6.062,6.062,0,1,1,58.26,30.242l25.7,12.711a6.063,6.063,0,0,1-2.692,11.5" transform="translate(74.567 44.597)" fill="#3b1d05"/><path d="M65.662,31.528a6.062,6.062,0,0,1-3.225-11.2L80.283,9.143a6.061,6.061,0,1,1,6.438,10.27L68.875,30.6a6.013,6.013,0,0,1-3.213.927" transform="translate(89.758 12.373)" fill="#3b1d05"/></g></g><path d="M238.5,9C111.953,9,9,111.5,9,237.5S111.953,466,238.5,466,468,363.5,468,237.5,365.047,9,238.5,9m0-9C370.22,0,477,106.332,477,237.5S370.22,475,238.5,475,0,368.668,0,237.5,106.78,0,238.5,0Z" transform="translate(-0.395 0.448)" fill="#3b1d05"/></g></g></g></svg>