<svg xmlns="http://www.w3.org/2000/svg" width="365.198" height="113.52" viewBox="0 0 365.198 113.52"><path d="M329.4,24.06a18.566,18.566,0,0,1-8.483-2.25,13.641,13.641,0,0,1-4.964-4.014,2.238,2.238,0,0,1-.263-2.249l8.959-18.914a10.15,10.15,0,0,1-2.365-1.21A7.736,7.736,0,0,1,319.5-8.059l-19.69-45.024a2.3,2.3,0,0,1,.383-2.181,15.349,15.349,0,0,1,5.2-4.133,19.748,19.748,0,0,1,8.746-2.463h.026a12.26,12.26,0,0,1,7.715,2.535c2.511,1.951,4.393,5,5.594,9.07l7.4,21.7,6.9-21.688c1.2-4.029,3.086-7.068,5.593-9.033a12.2,12.2,0,0,1,7.721-2.585,18.156,18.156,0,0,1,8.383,2.327,14.8,14.8,0,0,1,5.114,4.158,2.4,2.4,0,0,1,.37,2.306L343.036,12.789C340.116,20.373,335.656,24.06,329.4,24.06Zm-10.785-7.68A11.526,11.526,0,0,0,322,18.985a15.694,15.694,0,0,0,7.4,2.075,9.294,9.294,0,0,0,5.921-1.92c1.946-1.509,3.6-4.011,4.919-7.438l0-.011,25.772-65.5a11.712,11.712,0,0,0-3.55-2.842,15.674,15.674,0,0,0-7.386-2.205,9.27,9.27,0,0,0-5.869,1.945c-2.011,1.577-3.55,4.115-4.573,7.544l-.008.026-9.66,30.379L324.6-49.377c-1.02-3.467-2.556-6.017-4.566-7.579a9.326,9.326,0,0,0-5.861-1.9,16.915,16.915,0,0,0-7.744,2.314,13.006,13.006,0,0,0-3.639,2.8L322.273-9.2c.7,1.744,2.27,2.86,4.806,3.411l1.845.4ZM187.08,3.18A28.053,28.053,0,0,1,175.407.751a25.943,25.943,0,0,1-9.042-6.826,30.852,30.852,0,0,1-5.768-10.4A41.639,41.639,0,0,1,158.58-29.64c0-9.7,2.686-17.893,7.768-23.684a25.261,25.261,0,0,1,9.087-6.6A29.637,29.637,0,0,1,187.2-62.22a24.6,24.6,0,0,1,10.722,2.387A20.962,20.962,0,0,1,202.86-56.5V-81.84a2.6,2.6,0,0,1,1.444-2.045,11.5,11.5,0,0,1,2.259-1.01,21.287,21.287,0,0,1,6.677-1.085,14.862,14.862,0,0,1,10.6,3.917c3.359,3.248,5.062,8.329,5.062,15.1v56.4c0,4.339-1.111,7.622-3.3,9.759-1.974,1.925-4.8,2.9-8.4,2.9h-2.28A13.309,13.309,0,0,1,207.988.509a9.322,9.322,0,0,1-4.145-5.562A20.414,20.414,0,0,1,187.08,3.18Zm.12-62.4c-7.647,0-14.077,2.723-18.6,7.874C164.008-46.11,161.58-38.6,161.58-29.64a38.653,38.653,0,0,0,1.864,12.216,27.871,27.871,0,0,0,5.2,9.4,22.965,22.965,0,0,0,8,6.044A25.077,25.077,0,0,0,187.08.18a19.181,19.181,0,0,0,5.278-.72,17.176,17.176,0,0,0,4.52-2.029,17.488,17.488,0,0,0,6.366-7.312l2.311-4.888.538,5.38a28.7,28.7,0,0,0,.563,3.266,6.429,6.429,0,0,0,2.866,4.054A10.467,10.467,0,0,0,214.92-.9h2.28c2.788,0,4.908-.689,6.3-2.049,1.591-1.551,2.4-4.112,2.4-7.611v-56.4c0-5.93-1.4-10.286-4.148-12.947a10.418,10.418,0,0,0-3.99-2.387,14.3,14.3,0,0,0-4.522-.686,16.011,16.011,0,0,0-7.38,1.655v33.483l-2.725-3.852a17.178,17.178,0,0,0-6.527-5.443A21.584,21.584,0,0,0,187.2-59.22ZM254.88,2.7c-6.245,0-11.544-1.735-15.324-5.017a16.5,16.5,0,0,1-4.344-5.907A18.936,18.936,0,0,1,233.7-15.84a16.626,16.626,0,0,1,2.631-9.258,19.851,19.851,0,0,1,7.544-6.559c6.321-3.338,15.552-5.062,27.438-5.124h.864c-.016-.085-.032-.167-.048-.246l-.011-.054-.007-.054c-.492-3.934-2.879-5.766-7.512-5.766a12.475,12.475,0,0,0-7.282,1.917,9.067,9.067,0,0,0-3.2,4.2c-.354.941-1.368,1.066-2.187,1.167a21.852,21.852,0,0,1-2.573.144,18.9,18.9,0,0,1-8.3-1.71,8.811,8.811,0,0,1-5.079-8.3,12.913,12.913,0,0,1,3.51-9.169c2.238-2.555,5.613-4.483,10.033-5.73a61.811,61.811,0,0,1,16.4-1.841,53.278,53.278,0,0,1,14.216,1.691,26.136,26.136,0,0,1,10.134,5.183,21.112,21.112,0,0,1,5.978,8.678A33.435,33.435,0,0,1,298.14-34.92V-1.56A2.646,2.646,0,0,1,296.651.683a9.921,9.921,0,0,1-2.425,1.012,24.548,24.548,0,0,1-6.586.885c-5.762,0-10.115-2.34-12.589-6.768l-.032-.061c-.214-.428-.427-.869-.626-1.325a21.912,21.912,0,0,1-6.974,5.46A28.055,28.055,0,0,1,254.88,2.7Zm16.448-36.48c-11.4.059-20.163,1.666-26.052,4.776a16.908,16.908,0,0,0-6.433,5.546A13.678,13.678,0,0,0,236.7-15.84a14.4,14.4,0,0,0,4.824,11.257C244.75-1.781,249.368-.3,254.88-.3a25.047,25.047,0,0,0,11.192-2.5,18.4,18.4,0,0,0,7.564-6.86l2.1-3.473.667,4a12.785,12.785,0,0,0,1.286,3.5c1.942,3.452,5.291,5.2,9.954,5.2a22.161,22.161,0,0,0,5.082-.588,7.913,7.913,0,0,0,2.418-.9V-34.92a30.476,30.476,0,0,0-1.7-10.691,17.9,17.9,0,0,0-5.129-7.463,23.179,23.179,0,0,0-8.984-4.567A50.324,50.324,0,0,0,265.92-59.22a58.9,58.9,0,0,0-15.583,1.729c-3.863,1.09-6.759,2.717-8.607,4.837l-.042.046a9.876,9.876,0,0,0-2.709,7.128,5.831,5.831,0,0,0,3.438,5.622,16.3,16.3,0,0,0,6.944,1.384,18.294,18.294,0,0,0,2.278-.13,11.922,11.922,0,0,1,3.951-4.833A15.369,15.369,0,0,1,264.6-45.9a11.492,11.492,0,0,1,7.172,2.053,9.042,9.042,0,0,1,3.31,6.286,11.838,11.838,0,0,1,.259,2.281v1.5ZM141.96,2.1h-2.4c-3.793,0-6.619-.911-8.64-2.785a9.823,9.823,0,0,1-2.564-4.044,17.879,17.879,0,0,1-.856-5.831V-49.08c0-4.274,1.153-7.527,3.426-9.671,2.018-1.9,4.843-2.869,8.394-2.869h2.4c3.786,0,6.575.894,8.528,2.733,2.215,2.086,3.292,5.294,3.292,9.807v38.52c0,4.331-1.1,7.613-3.283,9.755C148.3,1.122,145.5,2.1,141.96,2.1Zm-2.64-60.72c-2.761,0-4.893.69-6.336,2.051-1.648,1.555-2.484,4.074-2.484,7.489v38.52a14.933,14.933,0,0,0,.689,4.846,6.772,6.772,0,0,0,1.771,2.83c1.44,1.336,3.6,1.985,6.6,1.985h2.4c2.73,0,4.813-.688,6.193-2.045,1.584-1.557,2.387-4.119,2.387-7.615V-49.08c0-3.641-.768-6.135-2.348-7.623-1.37-1.29-3.487-1.917-6.472-1.917ZM86.4,2.1H84c-3.785,0-6.595-.914-8.589-2.793a9.8,9.8,0,0,1-2.518-4.046,18.231,18.231,0,0,1-.834-5.821V-57.48a2.6,2.6,0,0,1,1.411-2.036,11.089,11.089,0,0,1,2.223-1.016A20.744,20.744,0,0,1,82.32-61.62a15.732,15.732,0,0,1,7.3,1.638,13.319,13.319,0,0,1,5.893,6.222q.052.085.1.173A16.692,16.692,0,0,1,99.742-58.7,15.8,15.8,0,0,1,109.92-62.22a14.236,14.236,0,0,1,10.23,3.773,13.715,13.715,0,0,1,3.87,10.087,14.756,14.756,0,0,1-3.958,10.484c-1.854,1.945-4.126,3.149-5.168,3.149h0a1.567,1.567,0,0,1-1.052-.393,11.068,11.068,0,0,0-7.162-2.74C103-37.86,98.1-36.5,98.1-24.72v14.16c0,4.376-1.129,7.677-3.357,9.813C92.772,1.142,89.965,2.1,86.4,2.1ZM75.06-56.976V-10.56A15.286,15.286,0,0,0,75.734-5.7a6.751,6.751,0,0,0,1.735,2.828C78.88-1.547,81.016-.9,84-.9h2.4c2.765,0,4.874-.677,6.267-2.013C94.281-4.461,95.1-7.033,95.1-10.56V-24.72c0-5.244.895-9.107,2.735-11.809,1.957-2.874,4.933-4.331,8.845-4.331a13.544,13.544,0,0,1,5.193,1.044,14.532,14.532,0,0,1,3.3,1.91,9.956,9.956,0,0,0,2.961-2.3,11.84,11.84,0,0,0,2.886-8.15,10.8,10.8,0,0,0-2.97-7.943,11.315,11.315,0,0,0-8.13-2.917,13.716,13.716,0,0,0-4.57.751,12.2,12.2,0,0,0-3.7,2.088,14.8,14.8,0,0,0-4.685,7.473l-1.539,5.386-1.359-5.435a12.511,12.511,0,0,0-1.137-3.289l-.045-.072-.036-.076c-1.976-4.132-5.518-6.227-10.527-6.227A15.564,15.564,0,0,0,75.06-56.976ZM19.44,1.98H15.6a10.381,10.381,0,0,1-8.79-4.3C4.879-4.985,3.9-8.728,3.9-13.44V-64.2c0-4.732,1.215-8.441,3.61-11.025a11.531,11.531,0,0,1,4.449-2.951,16.461,16.461,0,0,1,5.8-.964H55.32c4.224,0,7.306.86,9.422,2.629a8.447,8.447,0,0,1,2.474,3.5A12.861,12.861,0,0,1,67.98-68.4v.72a13.733,13.733,0,0,1-.757,4.8,8.625,8.625,0,0,1-2.465,3.608c-2.1,1.809-5.189,2.688-9.438,2.688H30.54v10.2h16.5c4.293,0,7.4.843,9.5,2.578a8.13,8.13,0,0,1,2.425,3.394A12.1,12.1,0,0,1,59.7-36v.48a12.907,12.907,0,0,1-.743,4.605,8.374,8.374,0,0,1-2.445,3.5c-2.1,1.772-5.2,2.633-9.472,2.633H31.5v14.1C31.5-2.516,27.217,1.98,19.44,1.98ZM17.76-76.14c-3.524,0-6.232.994-8.05,2.955C7.845-71.174,6.9-68.151,6.9-64.2v50.76c0,4.01.809,7.249,2.34,9.366A7.4,7.4,0,0,0,15.6-1.02h3.84c3.03,0,5.318-.8,6.8-2.365,1.5-1.589,2.261-4.044,2.261-7.3v-17.1H47.04c3.534,0,6-.63,7.538-1.927,1.428-1.2,2.122-3.105,2.122-5.813V-36c0-2.547-.675-4.342-2.065-5.488-1.522-1.255-4.077-1.892-7.6-1.892H27.54v-16.2H55.32c3.5,0,5.948-.642,7.482-1.962,1.466-1.262,2.178-3.269,2.178-6.138v-.72c0-2.693-.707-4.593-2.162-5.809-1.532-1.281-4.055-1.931-7.5-1.931Zm245.4,65.16a9.137,9.137,0,0,1-5.9-1.873,6.738,6.738,0,0,1-2.435-5.387,6.964,6.964,0,0,1,1.24-4.1,8.455,8.455,0,0,1,3.385-2.7c2.562-1.21,6.2-1.831,11.118-1.9l4.777-.177v5.582a10.44,10.44,0,0,1-3.614,7.705A12.945,12.945,0,0,1,263.16-10.98ZM272.34-24l-1.72.063c-4.427.059-7.756.6-9.894,1.611-1.982.937-2.906,2.236-2.906,4.089a3.782,3.782,0,0,0,1.345,3.073,6.215,6.215,0,0,0,4,1.187,10.009,10.009,0,0,0,6.615-2.13,7.506,7.506,0,0,0,2.565-5.524Zm-78.9,9.3a12.83,12.83,0,0,1-5.3-1.1,11.953,11.953,0,0,1-4.158-3.109,13.942,13.942,0,0,1-2.644-4.71,18.463,18.463,0,0,1-.917-5.9c0-9,5.252-14.82,13.38-14.82a13.061,13.061,0,0,1,7.27,2.059,13.136,13.136,0,0,1,4.64,5.387l.15.31v9.944a11.581,11.581,0,0,1-3.553,8.748,11.432,11.432,0,0,1-3.972,2.384A14.505,14.505,0,0,1,193.44-14.7Zm.36-26.64a9.792,9.792,0,0,0-7.526,3.06c-1.867,2.07-2.854,5.1-2.854,8.76a15.477,15.477,0,0,0,.76,4.944,10.96,10.96,0,0,0,2.07,3.7A9.208,9.208,0,0,0,193.44-17.7a9.788,9.788,0,0,0,6.823-2.388,8.662,8.662,0,0,0,2.6-6.552v-9.245a10.078,10.078,0,0,0-3.43-3.884A10.115,10.115,0,0,0,193.8-41.34ZM140.64-64.5a14.836,14.836,0,0,1-9.958-3.311,11.7,11.7,0,0,1-3.9-9.109,11.96,11.96,0,0,1,3.777-9.151,14.51,14.51,0,0,1,9.963-3.389,14.782,14.782,0,0,1,10.011,3.333,11.9,11.9,0,0,1,3.849,9.207,11.818,11.818,0,0,1-3.732,9.046C148.215-65.667,144.754-64.5,140.64-64.5Zm-.12-21.96a11.592,11.592,0,0,0-7.947,2.611,9.044,9.044,0,0,0-2.793,6.929,8.785,8.785,0,0,0,2.878,6.851A11.911,11.911,0,0,0,140.64-67.5c3.356,0,6.12-.9,7.992-2.6a8.9,8.9,0,0,0,2.748-6.824,8.986,8.986,0,0,0-2.841-6.963A11.864,11.864,0,0,0,140.52-86.46Z" transform="translate(-3.9 89.46)" fill="#ef658a"/></svg>