<svg xmlns="http://www.w3.org/2000/svg" width="442.717" height="110.04" viewBox="0 0 442.717 110.04"><path d="M406.92,24.06a18.566,18.566,0,0,1-8.483-2.25,13.641,13.641,0,0,1-4.964-4.014,2.238,2.238,0,0,1-.264-2.248l8.96-18.916a10.151,10.151,0,0,1-2.365-1.21,7.736,7.736,0,0,1-2.787-3.482l-19.69-45.024a2.3,2.3,0,0,1,.383-2.181,15.349,15.349,0,0,1,5.2-4.133,19.748,19.748,0,0,1,8.746-2.463h.026a12.259,12.259,0,0,1,7.715,2.536c2.511,1.951,4.393,5,5.594,9.07l7.4,21.7,6.9-21.69c1.2-4.028,3.086-7.067,5.592-9.032A12.2,12.2,0,0,1,432.6-61.86a18.157,18.157,0,0,1,8.383,2.327,14.8,14.8,0,0,1,5.114,4.158,2.4,2.4,0,0,1,.37,2.307L420.558,12.785C417.638,20.372,413.177,24.06,406.92,24.06Zm-10.785-7.68a11.526,11.526,0,0,0,3.384,2.605,15.694,15.694,0,0,0,7.4,2.075,9.293,9.293,0,0,0,5.921-1.92c1.946-1.509,3.6-4.012,4.919-7.438l0-.011,25.772-65.5a11.713,11.713,0,0,0-3.55-2.842A15.674,15.674,0,0,0,432.6-58.86a9.27,9.27,0,0,0-5.869,1.945c-2.011,1.577-3.55,4.115-4.573,7.544l-.008.026-9.66,30.379-10.369-30.41c-1.02-3.467-2.556-6.017-4.566-7.579a9.326,9.326,0,0,0-5.861-1.9,16.913,16.913,0,0,0-7.744,2.314,13,13,0,0,0-3.639,2.8L399.793-9.2c.7,1.744,2.27,2.86,4.806,3.411l1.845.4ZM264.6,3.18A28.053,28.053,0,0,1,252.927.751a25.944,25.944,0,0,1-9.042-6.826,30.853,30.853,0,0,1-5.768-10.4A41.64,41.64,0,0,1,236.1-29.64c0-9.7,2.686-17.893,7.768-23.684a25.262,25.262,0,0,1,9.087-6.6A29.638,29.638,0,0,1,264.72-62.22a24.6,24.6,0,0,1,10.722,2.386A20.964,20.964,0,0,1,280.38-56.5V-81.84a2.6,2.6,0,0,1,1.444-2.045,11.493,11.493,0,0,1,2.259-1.01,21.287,21.287,0,0,1,6.677-1.085,14.862,14.862,0,0,1,10.6,3.917c3.359,3.248,5.062,8.329,5.062,15.1v56.4c0,4.339-1.111,7.622-3.3,9.759-1.974,1.925-4.8,2.9-8.4,2.9h-2.28A13.309,13.309,0,0,1,285.508.509a9.322,9.322,0,0,1-4.145-5.562A20.414,20.414,0,0,1,264.6,3.18Zm.12-62.4c-7.647,0-14.077,2.723-18.6,7.874C241.528-46.11,239.1-38.6,239.1-29.64a38.654,38.654,0,0,0,1.864,12.216,27.871,27.871,0,0,0,5.2,9.4,22.964,22.964,0,0,0,8,6.044A25.077,25.077,0,0,0,264.6.18a19.181,19.181,0,0,0,5.278-.72,17.179,17.179,0,0,0,4.52-2.029,17.488,17.488,0,0,0,6.366-7.312l2.311-4.888.538,5.38a28.71,28.71,0,0,0,.563,3.266,6.429,6.429,0,0,0,2.866,4.054A10.468,10.468,0,0,0,292.44-.9h2.28c2.788,0,4.908-.689,6.3-2.049,1.591-1.551,2.4-4.112,2.4-7.611v-56.4c0-5.93-1.4-10.286-4.148-12.947a10.417,10.417,0,0,0-3.99-2.387,14.3,14.3,0,0,0-4.523-.686,16.01,16.01,0,0,0-7.38,1.655v33.483l-2.725-3.852a17.178,17.178,0,0,0-6.527-5.443A21.584,21.584,0,0,0,264.72-59.22ZM127.2,3.18c-10,0-18.458-3.088-24.461-8.93s-9.2-14.118-9.2-23.89A35.421,35.421,0,0,1,95.979-42.9a29.335,29.335,0,0,1,6.949-10.336,30.877,30.877,0,0,1,10.781-6.649A39.974,39.974,0,0,1,127.56-62.22a39.284,39.284,0,0,1,13.75,2.337,30.341,30.341,0,0,1,10.666,6.668,29.344,29.344,0,0,1,6.848,10.373,36.238,36.238,0,0,1,2.4,13.322A36.118,36.118,0,0,1,158.8-16.144a29.173,29.173,0,0,1-6.921,10.37A30.6,30.6,0,0,1,141.1.863,40.358,40.358,0,0,1,127.2,3.18Zm.36-62.4a36.991,36.991,0,0,0-12.815,2.148,27.9,27.9,0,0,0-9.743,6,26.354,26.354,0,0,0-6.24,9.288A32.44,32.44,0,0,0,96.54-29.64c0,8.944,2.867,16.461,8.291,21.74S118,.18,127.2.18a37.374,37.374,0,0,0,12.868-2.134A27.622,27.622,0,0,0,149.8-7.937c5.508-5.289,8.419-12.753,8.419-21.583a33.258,33.258,0,0,0-2.187-12.223,26.366,26.366,0,0,0-6.149-9.322,27.36,27.36,0,0,0-9.621-6.007A36.3,36.3,0,0,0,127.56-59.22ZM332.4,2.7c-6.245,0-11.544-1.735-15.324-5.017a16.5,16.5,0,0,1-4.344-5.907,18.935,18.935,0,0,1-1.513-7.616,16.626,16.626,0,0,1,2.631-9.258,19.851,19.851,0,0,1,7.544-6.559c6.321-3.338,15.552-5.062,27.438-5.124h.864c-.016-.085-.032-.167-.048-.246l-.011-.054-.007-.054c-.492-3.934-2.879-5.766-7.512-5.766a12.474,12.474,0,0,0-7.281,1.917,9.067,9.067,0,0,0-3.2,4.2c-.355.939-1.368,1.064-2.186,1.165a21.845,21.845,0,0,1-2.573.144,18.9,18.9,0,0,1-8.3-1.71,8.811,8.811,0,0,1-5.078-8.3,12.912,12.912,0,0,1,3.51-9.169c2.238-2.555,5.613-4.483,10.033-5.73a61.811,61.811,0,0,1,16.4-1.841,53.281,53.281,0,0,1,14.216,1.691,26.137,26.137,0,0,1,10.134,5.183,21.111,21.111,0,0,1,5.978,8.678A33.433,33.433,0,0,1,375.66-34.92V-1.56A2.646,2.646,0,0,1,374.171.683a9.918,9.918,0,0,1-2.425,1.012,24.546,24.546,0,0,1-6.585.885c-5.762,0-10.115-2.34-12.589-6.768l-.032-.061c-.214-.428-.427-.869-.626-1.325a21.912,21.912,0,0,1-6.974,5.46A28.055,28.055,0,0,1,332.4,2.7Zm16.448-36.48c-11.4.059-20.163,1.666-26.052,4.776a16.908,16.908,0,0,0-6.433,5.546,13.678,13.678,0,0,0-2.143,7.617,14.4,14.4,0,0,0,4.824,11.257C322.27-1.781,326.888-.3,332.4-.3a25.048,25.048,0,0,0,11.192-2.5,18.4,18.4,0,0,0,7.564-6.86l2.1-3.473.667,4a12.786,12.786,0,0,0,1.287,3.505c1.943,3.451,5.291,5.2,9.954,5.2a22.163,22.163,0,0,0,5.082-.588,7.912,7.912,0,0,0,2.418-.9V-34.92a30.477,30.477,0,0,0-1.7-10.692,17.9,17.9,0,0,0-5.129-7.462,23.179,23.179,0,0,0-8.984-4.567A50.323,50.323,0,0,0,343.44-59.22a58.9,58.9,0,0,0-15.583,1.729c-3.863,1.09-6.759,2.717-8.607,4.837l-.042.046A9.876,9.876,0,0,0,316.5-45.48a5.831,5.831,0,0,0,3.438,5.622,16.3,16.3,0,0,0,6.944,1.384,18.3,18.3,0,0,0,2.278-.13,11.922,11.922,0,0,1,3.951-4.833A15.37,15.37,0,0,1,342.12-45.9a11.492,11.492,0,0,1,7.172,2.053,9.042,9.042,0,0,1,3.31,6.287,11.832,11.832,0,0,1,.259,2.281v1.5ZM220.08,2.1h-2.4c-3.739,0-6.532-.912-8.539-2.789a9.86,9.86,0,0,1-2.547-4.042,17.932,17.932,0,0,1-.853-5.829v-22.8a8.062,8.062,0,0,0-1.617-5.322A5.565,5.565,0,0,0,199.68-40.5a9.588,9.588,0,0,0-4.578,1.122,8.062,8.062,0,0,0-2.8,2.5V-10.56c0,4.376-1.129,7.677-3.357,9.813C186.972,1.142,184.165,2.1,180.6,2.1h-2.4c-3.785,0-6.595-.914-8.589-2.793a9.8,9.8,0,0,1-2.518-4.046,18.231,18.231,0,0,1-.833-5.821V-57.48a2.6,2.6,0,0,1,1.416-2.038,11.107,11.107,0,0,1,2.238-1.016,21.213,21.213,0,0,1,6.726-1.086,15.089,15.089,0,0,1,9,2.72,13.873,13.873,0,0,1,4.59,5.955,25.179,25.179,0,0,1,6.549-5.918,23.48,23.48,0,0,1,12.5-3.357,24.717,24.717,0,0,1,10.388,2.072,18.692,18.692,0,0,1,7.06,5.622c3.305,4.288,5.052,10.237,5.052,17.206v26.76c0,4.339-1.111,7.622-3.3,9.759C226.5,1.124,223.678,2.1,220.08,2.1Zm-20.4-45.6a8.542,8.542,0,0,1,6.717,2.862,10.972,10.972,0,0,1,2.343,7.278v22.8a14.986,14.986,0,0,0,.688,4.847,6.807,6.807,0,0,0,1.761,2.832C212.615-1.548,214.738-.9,217.68-.9h2.4c2.788,0,4.908-.689,6.3-2.049,1.591-1.551,2.4-4.112,2.4-7.611V-37.32c0-6.3-1.531-11.616-4.428-15.374-3.338-4.33-8.409-6.526-15.072-6.526a22.571,22.571,0,0,0-6.014.776,19.1,19.1,0,0,0-4.915,2.136,23.926,23.926,0,0,0-7.379,7.454l-1.9,2.876-.81-3.35a12,12,0,0,0-4.393-7.152,11.96,11.96,0,0,0-7.229-2.14,18.74,18.74,0,0,0-5.134.727,9.577,9.577,0,0,0-2.246.921V-10.56a15.287,15.287,0,0,0,.674,4.856,6.751,6.751,0,0,0,1.735,2.828C173.08-1.546,175.216-.9,178.2-.9h2.4c2.765,0,4.874-.677,6.267-2.013,1.614-1.548,2.433-4.121,2.433-7.647V-37.741l.219-.359a11,11,0,0,1,4.149-3.912A12.6,12.6,0,0,1,199.68-43.5ZM77.4,2.1H73.68a13.292,13.292,0,0,1-4.866-.819,8.582,8.582,0,0,1-3.556-2.568C63.537-3.4,62.7-6.429,62.7-10.56V-21.008l.073-13.971-5.1,14.536c-.107.266-.2.532-.307.813A7.825,7.825,0,0,1,54.513-15.4C52.75-14.184,50.07-13.62,46.08-13.62s-6.532-.506-8.25-1.64a7.392,7.392,0,0,1-2.8-4.1c-.128-.348-.26-.708-.407-1.056l-.029-.073L29.58-34.3V-10.56c0,4.156-.8,7.184-2.439,9.256A8.33,8.33,0,0,1,23.62,1.28a13.162,13.162,0,0,1-4.9.82H14.76c-3.7,0-6.5-1.141-8.322-3.392C4.73-3.406,3.9-6.438,3.9-10.56V-66.72c0-4.142,1.077-7.38,3.2-9.626s5.192-3.394,9.1-3.394h6.72c3.587,0,5.894.486,7.711,1.624,1.756,1.1,3.055,2.82,4.342,5.753l.016.038,11.2,27.53L57.314-72.381c1.346-2.961,2.774-4.776,4.631-5.887C63.671-79.3,65.781-79.74,69-79.74h6.84c3.965,0,7.078,1.138,9.252,3.381s3.288,5.494,3.288,9.639v56.16c0,4.164-.8,7.194-2.459,9.262a8.387,8.387,0,0,1-3.558,2.581A13.5,13.5,0,0,1,77.4,2.1ZM65.7-20.992V-10.56c0,3.412.616,5.825,1.882,7.377C68.836-1.647,70.831-.9,73.68-.9H77.4c2.935,0,4.956-.743,6.179-2.272s1.8-3.932,1.8-7.388V-66.72c0-6.649-3.21-10.02-9.54-10.02H69c-2.638,0-4.288.313-5.515,1.047-1.3.775-2.353,2.171-3.426,4.525L46.207-36.8,32.218-71.176c-1.038-2.359-1.96-3.634-3.179-4.4-1.306-.817-3.136-1.166-6.119-1.166H16.2c-3.051,0-5.379.826-6.92,2.456C7.7-72.615,6.9-70.07,6.9-66.72v56.16c0,3.361.63,5.845,1.872,7.382S11.969-.9,14.76-.9h3.96c2.876,0,4.861-.741,6.069-2.266s1.791-3.94,1.791-7.394V-42.84l2.91-.511,7.907,21.8c.168.4.309.783.445,1.153a4.608,4.608,0,0,0,1.641,2.63c1.166.77,3.324,1.144,6.6,1.144,3.309,0,5.512-.408,6.734-1.248a5.062,5.062,0,0,0,1.736-2.8c.1-.279.208-.568.326-.863L62.9-44.417l2.915.5ZM340.68-10.98a9.138,9.138,0,0,1-5.9-1.873,6.738,6.738,0,0,1-2.435-5.387,6.964,6.964,0,0,1,1.24-4.1,8.454,8.454,0,0,1,3.385-2.7c2.562-1.21,6.2-1.831,11.118-1.9l4.778-.177v5.582a10.44,10.44,0,0,1-3.614,7.7A12.945,12.945,0,0,1,340.68-10.98ZM349.86-24l-1.72.063c-4.427.059-7.756.6-9.894,1.611-1.982.937-2.906,2.236-2.906,4.089a3.782,3.782,0,0,0,1.345,3.073,6.215,6.215,0,0,0,4,1.187,10.009,10.009,0,0,0,6.615-2.13,7.506,7.506,0,0,0,2.565-5.524ZM127.44-14.46C119-14.46,113.1-20.7,113.1-29.64a17.249,17.249,0,0,1,1.037-6.034,13.989,13.989,0,0,1,2.96-4.794,13.219,13.219,0,0,1,4.575-3.13,15.037,15.037,0,0,1,5.768-1.1,14.53,14.53,0,0,1,5.712,1.126,13.22,13.22,0,0,1,4.535,3.176,14.263,14.263,0,0,1,2.939,4.83,17.441,17.441,0,0,1,1.034,6.048,15.549,15.549,0,0,1-4.021,10.731A13.807,13.807,0,0,1,127.44-14.46Zm0-27.24a10.938,10.938,0,0,0-8.167,3.3,11.007,11.007,0,0,0-2.324,3.774,14.265,14.265,0,0,0-.849,4.988c0,7.285,4.557,12.18,11.34,12.18a10.837,10.837,0,0,0,8.011-3.381,12.567,12.567,0,0,0,3.209-8.679,14.456,14.456,0,0,0-.849-5.011,11.28,11.28,0,0,0-2.319-3.822,10.239,10.239,0,0,0-3.512-2.46A11.549,11.549,0,0,0,127.44-41.7Zm143.52,27a12.831,12.831,0,0,1-5.3-1.1,11.952,11.952,0,0,1-4.158-3.109,13.941,13.941,0,0,1-2.644-4.71,18.464,18.464,0,0,1-.917-5.9c0-9,5.252-14.82,13.38-14.82a13.061,13.061,0,0,1,7.27,2.059,13.136,13.136,0,0,1,4.64,5.387l.15.31v9.944a11.581,11.581,0,0,1-3.553,8.748,11.433,11.433,0,0,1-3.972,2.384A14.506,14.506,0,0,1,270.96-14.7Zm.36-26.64a9.792,9.792,0,0,0-7.526,3.06c-1.867,2.07-2.854,5.1-2.854,8.76a15.479,15.479,0,0,0,.76,4.944,10.96,10.96,0,0,0,2.07,3.7A9.208,9.208,0,0,0,270.96-17.7a9.788,9.788,0,0,0,6.823-2.388,8.661,8.661,0,0,0,2.6-6.552v-9.245a10.078,10.078,0,0,0-3.43-3.883A10.114,10.114,0,0,0,271.32-41.34Z" transform="translate(-3.9 85.98)" fill="#ef658a"/></svg>