<svg xmlns="http://www.w3.org/2000/svg" width="526.357" height="110.04" viewBox="0 0 526.357 110.04"><path d="M487.44,24.06a18.566,18.566,0,0,1-8.483-2.25,13.641,13.641,0,0,1-4.964-4.014,2.238,2.238,0,0,1-.264-2.249l8.96-18.915a10.15,10.15,0,0,1-2.365-1.21,7.736,7.736,0,0,1-2.787-3.482l-19.69-45.024a2.3,2.3,0,0,1,.383-2.181,15.348,15.348,0,0,1,5.2-4.133,19.748,19.748,0,0,1,8.746-2.463h.026a12.26,12.26,0,0,1,7.715,2.536c2.511,1.951,4.393,5,5.595,9.07l7.4,21.7,6.9-21.688c1.2-4.029,3.086-7.068,5.593-9.034a12.2,12.2,0,0,1,7.721-2.585,18.157,18.157,0,0,1,8.383,2.327,14.8,14.8,0,0,1,5.114,4.158,2.4,2.4,0,0,1,.37,2.306L501.076,12.789C498.156,20.373,493.7,24.06,487.44,24.06Zm-10.785-7.68a11.527,11.527,0,0,0,3.384,2.605,15.7,15.7,0,0,0,7.4,2.075,9.294,9.294,0,0,0,5.921-1.92c1.946-1.509,3.6-4.012,4.919-7.438l0-.011,25.772-65.5a11.71,11.71,0,0,0-3.55-2.842,15.673,15.673,0,0,0-7.386-2.205,9.27,9.27,0,0,0-5.869,1.945c-2.011,1.577-3.55,4.115-4.573,7.544l-.008.025-9.66,30.379-10.369-30.41c-1.02-3.467-2.556-6.017-4.566-7.579a9.326,9.326,0,0,0-5.86-1.9,16.913,16.913,0,0,0-7.745,2.314,13,13,0,0,0-3.639,2.8L480.313-9.2c.7,1.744,2.27,2.86,4.806,3.411l1.845.4ZM345.12,3.18A28.053,28.053,0,0,1,333.447.751a25.943,25.943,0,0,1-9.042-6.826,30.851,30.851,0,0,1-5.768-10.4A41.64,41.64,0,0,1,316.62-29.64c0-9.7,2.686-17.893,7.767-23.684a25.263,25.263,0,0,1,9.087-6.6A29.639,29.639,0,0,1,345.24-62.22a24.6,24.6,0,0,1,10.722,2.387A20.963,20.963,0,0,1,360.9-56.5V-81.84a2.6,2.6,0,0,1,1.444-2.045A11.494,11.494,0,0,1,364.6-84.9a21.287,21.287,0,0,1,6.677-1.085,14.862,14.862,0,0,1,10.6,3.917c3.359,3.248,5.062,8.329,5.062,15.1v56.4c0,4.339-1.111,7.622-3.3,9.759-1.974,1.925-4.8,2.9-8.4,2.9h-2.28A13.31,13.31,0,0,1,366.028.509a9.322,9.322,0,0,1-4.145-5.562A20.414,20.414,0,0,1,345.12,3.18Zm.12-62.4c-7.647,0-14.077,2.723-18.6,7.874C322.048-46.11,319.62-38.6,319.62-29.64a38.652,38.652,0,0,0,1.864,12.216,27.871,27.871,0,0,0,5.2,9.4,22.966,22.966,0,0,0,8,6.044A25.076,25.076,0,0,0,345.12.18,19.18,19.18,0,0,0,350.4-.54a17.175,17.175,0,0,0,4.52-2.029,17.488,17.488,0,0,0,6.366-7.312l2.311-4.888.538,5.38a28.716,28.716,0,0,0,.563,3.266,6.429,6.429,0,0,0,2.866,4.054A10.467,10.467,0,0,0,372.96-.9h2.28c2.788,0,4.908-.689,6.3-2.049,1.591-1.551,2.4-4.112,2.4-7.611v-56.4c0-5.93-1.4-10.286-4.148-12.947a10.417,10.417,0,0,0-3.99-2.387,14.3,14.3,0,0,0-4.523-.686,16.01,16.01,0,0,0-7.38,1.655v33.483l-2.725-3.852a17.179,17.179,0,0,0-6.527-5.443A21.585,21.585,0,0,0,345.24-59.22ZM169.56,3.18a30.31,30.31,0,0,1-9.666-1.407,17.781,17.781,0,0,1-7.111-4.354A18.213,18.213,0,0,1,148.541-9.8a31.822,31.822,0,0,1-1.361-9.755V-40.62h-.06c-3.291,0-5.879-.8-7.69-2.379a7.764,7.764,0,0,1-2.124-3.022,10.536,10.536,0,0,1-.685-3.9v-1.32a9.492,9.492,0,0,1,2.666-7.157c1.814-1.74,4.449-2.623,7.834-2.623h.06v-4.26c0-4.009,1.042-7.138,3.1-9.3s4.98-3.241,8.722-3.241h2.04c3.778,0,6.551.9,8.477,2.742,2.168,2.077,3.223,5.282,3.223,9.8v4.26h5.34c8.678,0,10.5,5.057,10.5,9.3v1.32a9.342,9.342,0,0,1-2.82,7.278c-1.839,1.66-4.5,2.5-7.92,2.5h-5.46V-22.2a5.628,5.628,0,0,0,.874,3.533,3.239,3.239,0,0,0,2.666.967c2.121,0,3.7-.927,5.264-3.1l.449-.622h.767c1.242,0,2.907,1.382,4.005,2.751A11.49,11.49,0,0,1,188.94-11.4a13,13,0,0,1-.919,4.9,13.379,13.379,0,0,1-2.732,4.174l-.008.008a16.686,16.686,0,0,1-6.6,4.065A27.5,27.5,0,0,1,169.56,3.18Zm-22.44-61.2c-2.584,0-4.521.6-5.756,1.787a6.641,6.641,0,0,0-1.744,4.993v1.32a5.874,5.874,0,0,0,1.78,4.659c1.25,1.089,3.174,1.641,5.72,1.641h3.06v24.06a28.861,28.861,0,0,0,1.215,8.83,15.247,15.247,0,0,0,3.532,6.051,14.815,14.815,0,0,0,5.928,3.611A27.347,27.347,0,0,0,169.56.18a24.525,24.525,0,0,0,8.128-1.265A13.733,13.733,0,0,0,183.117-4.4a9.776,9.776,0,0,0,2.823-7,8.553,8.553,0,0,0-1.656-5.106,7.782,7.782,0,0,0-1.459-1.523,8.743,8.743,0,0,1-6.9,3.329,6.1,6.1,0,0,1-4.984-2.063A8.294,8.294,0,0,1,169.38-22.2V-43.62h8.46c2.651,0,4.64-.581,5.91-1.728a6.5,6.5,0,0,0,1.83-5.052v-1.32c0-2.166-.554-3.706-1.7-4.708-1.2-1.056-3.155-1.592-5.8-1.592h-8.34v-7.26c0-3.655-.752-6.151-2.3-7.632-1.341-1.284-3.435-1.908-6.4-1.908H159c-2.888,0-5.091.777-6.548,2.309-1.508,1.585-2.272,4.018-2.272,7.231v7.26Zm-114,61.2c-11.329,0-20.3-2.084-25.933-6.026A14.907,14.907,0,0,1,2.31-8.063,12.95,12.95,0,0,1,.78-14.28a11.21,11.21,0,0,1,1.172-4.747,19.364,19.364,0,0,1,2.56-3.986A20.643,20.643,0,0,1,7.336-25.87c1.471-1.2,2.223-1.35,2.714-1.35a1.745,1.745,0,0,1,1.022.32l.078.056.07.065a33.279,33.279,0,0,0,9.729,5.86A33.252,33.252,0,0,0,33-18.3c3.345,0,5.814-.443,7.34-1.317A3.334,3.334,0,0,0,42.18-22.8a2.785,2.785,0,0,0-.593-1.831,5.31,5.31,0,0,0-1.993-1.4,41.782,41.782,0,0,0-8.314-2.177q-.775-.155-1.578-.317l-.014,0a70.922,70.922,0,0,1-9.721-2.693,33.83,33.83,0,0,1-8.682-4.516,21.1,21.1,0,0,1-6.313-7.33A23.561,23.561,0,0,1,2.58-53.88,27.044,27.044,0,0,1,4.886-65.213a22.829,22.829,0,0,1,6.807-8.555,31.079,31.079,0,0,1,10.869-5.267A54.454,54.454,0,0,1,37.08-80.82a62.228,62.228,0,0,1,14.006,1.434,32.047,32.047,0,0,1,9.7,3.829,15.614,15.614,0,0,1,5.226,4.938A11.277,11.277,0,0,1,67.74-64.56c0,3.947-2.328,7.354-4.282,9.518a22.654,22.654,0,0,1-3.077,2.837c-1.7,1.281-2.308,1.281-2.6,1.281a1.59,1.59,0,0,1-.963-.316l-.064-.048-.058-.054a31.015,31.015,0,0,0-8.954-5.717A27.149,27.149,0,0,0,37.32-59.34c-3.174,0-5.533.44-7.01,1.308A3.4,3.4,0,0,0,28.5-54.84c0,.826.256,1.707,2.116,2.555a38.932,38.932,0,0,0,7.37,1.956c1.119.231,2.277.47,3.493.743C50.233-47.724,56.7-45.1,61.237-41.563a21.409,21.409,0,0,1,6.087,7.248A21.952,21.952,0,0,1,69.54-24.36a28.526,28.526,0,0,1-2.333,11.826A22.428,22.428,0,0,1,60.167-3.8C54.021.833,44.921,3.18,33.12,3.18ZM9.834-24a15.973,15.973,0,0,0-3.272,3.225A11.3,11.3,0,0,0,3.78-14.28c0,3.654,1.716,6.668,5.1,8.958l.02.014A27.749,27.749,0,0,0,18.193-1.4,63.321,63.321,0,0,0,33.12.18c11.135,0,19.628-2.144,25.243-6.373a19.462,19.462,0,0,0,6.112-7.579A25.564,25.564,0,0,0,66.54-24.36,17.711,17.711,0,0,0,59.393-39.2c-4.176-3.252-10.242-5.691-18.545-7.456l-.016,0c-1.2-.268-2.344-.5-3.454-.734a40.44,40.44,0,0,1-8.009-2.165,7.318,7.318,0,0,1-2.75-2A5.1,5.1,0,0,1,25.5-54.84a6.388,6.388,0,0,1,3.29-5.778c1.971-1.159,4.762-1.722,8.53-1.722a30.162,30.162,0,0,1,11.6,2.519,34.41,34.41,0,0,1,9.1,5.625A18.736,18.736,0,0,0,61.54-57.4c1.46-1.7,3.2-4.316,3.2-7.158,0-3.361-1.858-6.2-5.522-8.44l-.013-.008a29.074,29.074,0,0,0-8.8-3.456A59.252,59.252,0,0,0,37.08-77.82a51.477,51.477,0,0,0-13.715,1.676A28.108,28.108,0,0,0,13.538-71.4a19.858,19.858,0,0,0-5.924,7.439A24.075,24.075,0,0,0,5.58-53.88c0,6.834,2.452,11.98,7.5,15.731A30.9,30.9,0,0,0,21-34.043a68.021,68.021,0,0,0,9.309,2.575q.792.161,1.559.313a43.359,43.359,0,0,1,8.976,2.391A8.173,8.173,0,0,1,43.933-26.5a5.785,5.785,0,0,1,1.247,3.7,6.352,6.352,0,0,1-3.35,5.787C39.817-15.86,36.929-15.3,33-15.3a36.3,36.3,0,0,1-13.179-2.84A37.02,37.02,0,0,1,9.834-24ZM214.32,3.06a24.872,24.872,0,0,1-10.384-2.054,18.612,18.612,0,0,1-7.062-5.594c-3.306-4.274-5.054-10.24-5.054-17.253V-49.08c0-4.279,1.106-7.527,3.288-9.654,1.964-1.915,4.754-2.886,8.292-2.886h2.4c3.8,0,6.625.889,8.63,2.716A9.644,9.644,0,0,1,217-54.9a17.714,17.714,0,0,1,.857,5.815V-25.8a8.018,8.018,0,0,0,1.622,5.355,5.769,5.769,0,0,0,4.558,1.785A8.788,8.788,0,0,0,231.3-22.3V-49.08a17.711,17.711,0,0,1,.831-5.7,9.906,9.906,0,0,1,2.481-4c1.961-1.879,4.783-2.832,8.388-2.832h2.4c3.747,0,6.537.89,8.53,2.72a9.679,9.679,0,0,1,2.556,4.006,17.767,17.767,0,0,1,.854,5.814V-2.04a2.536,2.536,0,0,1-1.455,2A12.307,12.307,0,0,1,253.649.966,20.884,20.884,0,0,1,246.96,2.1,15.991,15.991,0,0,1,239.3.331a13.668,13.668,0,0,1-5.971-6.57,24.849,24.849,0,0,1-6.413,5.921,21.5,21.5,0,0,1-5.686,2.492A26.013,26.013,0,0,1,214.32,3.06ZM203.4-58.62c-2.728,0-4.813.684-6.2,2.034-1.581,1.541-2.382,4.066-2.382,7.506v27.24c0,6.342,1.531,11.674,4.426,15.417,3.327,4.3,8.4,6.483,15.074,6.483a20.146,20.146,0,0,0,11.009-2.922,23.977,23.977,0,0,0,7.292-7.554l2.237-3.451.51,4.081a8.273,8.273,0,0,0,.477,1.723c.051.144.1.293.154.439C237.987-3.163,241.674-.9,246.96-.9a18.036,18.036,0,0,0,5.1-.77,10.754,10.754,0,0,0,2.281-.939V-49.08a14.823,14.823,0,0,0-.687-4.825A6.63,6.63,0,0,0,251.9-56.69c-1.413-1.3-3.54-1.93-6.5-1.93H243c-2.845,0-4.909.654-6.312,2C235.1-55.1,234.3-52.566,234.3-49.08v27.686l-.244.373a11.826,11.826,0,0,1-4.143,3.867,11.948,11.948,0,0,1-5.873,1.494,8.744,8.744,0,0,1-6.812-2.8A10.916,10.916,0,0,1,214.86-25.8V-49.08c0-3.616-.8-6.1-2.45-7.606-1.428-1.3-3.59-1.934-6.61-1.934ZM412.92,2.7c-6.245,0-11.544-1.735-15.324-5.017a16.5,16.5,0,0,1-4.344-5.907,18.935,18.935,0,0,1-1.513-7.616,16.625,16.625,0,0,1,2.631-9.258,19.851,19.851,0,0,1,7.544-6.559c6.321-3.338,15.552-5.062,27.438-5.124h.865c-.016-.085-.032-.167-.048-.246l-.011-.054-.007-.054c-.492-3.934-2.879-5.766-7.512-5.766a12.475,12.475,0,0,0-7.282,1.917,9.068,9.068,0,0,0-3.2,4.2c-.355.939-1.368,1.064-2.186,1.165a21.853,21.853,0,0,1-2.573.144,18.9,18.9,0,0,1-8.3-1.71,8.811,8.811,0,0,1-5.079-8.3,12.912,12.912,0,0,1,3.509-9.168c2.238-2.555,5.613-4.483,10.034-5.73a61.813,61.813,0,0,1,16.4-1.841,53.279,53.279,0,0,1,14.216,1.691,26.137,26.137,0,0,1,10.134,5.183,21.112,21.112,0,0,1,5.978,8.678A33.435,33.435,0,0,1,456.18-34.92V-1.56A2.646,2.646,0,0,1,454.691.683a9.919,9.919,0,0,1-2.425,1.012,24.546,24.546,0,0,1-6.585.885c-5.762,0-10.115-2.34-12.589-6.768l-.032-.061c-.214-.428-.427-.869-.626-1.325a21.912,21.912,0,0,1-6.974,5.46A28.056,28.056,0,0,1,412.92,2.7Zm16.448-36.48c-11.4.059-20.163,1.666-26.052,4.776a16.908,16.908,0,0,0-6.433,5.546,13.678,13.678,0,0,0-2.143,7.617,14.4,14.4,0,0,0,4.824,11.257C402.79-1.781,407.408-.3,412.92-.3a25.048,25.048,0,0,0,11.192-2.5,18.4,18.4,0,0,0,7.564-6.86l2.1-3.473.667,4a12.469,12.469,0,0,0,1.286,3.5c1.943,3.452,5.291,5.2,9.954,5.2a22.162,22.162,0,0,0,5.082-.588,7.912,7.912,0,0,0,2.418-.9V-34.92a30.477,30.477,0,0,0-1.7-10.692,17.9,17.9,0,0,0-5.129-7.462,23.179,23.179,0,0,0-8.984-4.567A50.323,50.323,0,0,0,423.96-59.22a58.9,58.9,0,0,0-15.583,1.729c-3.863,1.09-6.759,2.717-8.607,4.837l-.042.046a9.876,9.876,0,0,0-2.709,7.128,5.831,5.831,0,0,0,3.438,5.622,16.3,16.3,0,0,0,6.944,1.384,18.3,18.3,0,0,0,2.278-.13,11.922,11.922,0,0,1,3.951-4.833A15.369,15.369,0,0,1,422.64-45.9a11.492,11.492,0,0,1,7.172,2.053,9.041,9.041,0,0,1,3.309,6.286,11.837,11.837,0,0,1,.259,2.281v1.5ZM92.52,2.7C86.275,2.7,80.976.965,77.2-2.317a16.5,16.5,0,0,1-4.344-5.907A18.935,18.935,0,0,1,71.34-15.84,16.625,16.625,0,0,1,73.971-25.1a19.851,19.851,0,0,1,7.544-6.559c6.321-3.338,15.552-5.062,27.438-5.124h.865c-.016-.085-.032-.167-.048-.246l-.011-.054-.007-.054c-.492-3.934-2.879-5.766-7.512-5.766a12.475,12.475,0,0,0-7.282,1.917,9.068,9.068,0,0,0-3.2,4.2c-.355.939-1.368,1.064-2.186,1.165A21.853,21.853,0,0,1,87-35.473a18.9,18.9,0,0,1-8.3-1.71,8.811,8.811,0,0,1-5.079-8.3,12.912,12.912,0,0,1,3.509-9.168c2.238-2.555,5.613-4.483,10.034-5.73a61.813,61.813,0,0,1,16.4-1.841,53.279,53.279,0,0,1,14.216,1.691,26.137,26.137,0,0,1,10.134,5.183,21.112,21.112,0,0,1,5.978,8.678A33.434,33.434,0,0,1,135.78-34.92V-1.56A2.646,2.646,0,0,1,134.291.683a9.919,9.919,0,0,1-2.425,1.012,24.547,24.547,0,0,1-6.585.885c-5.762,0-10.115-2.34-12.589-6.768l-.032-.061c-.214-.428-.427-.869-.626-1.325a21.911,21.911,0,0,1-6.974,5.46A28.056,28.056,0,0,1,92.52,2.7Zm16.448-36.48c-11.4.059-20.163,1.666-26.052,4.776a16.908,16.908,0,0,0-6.433,5.546A13.678,13.678,0,0,0,74.34-15.84,14.4,14.4,0,0,0,79.164-4.583C82.39-1.781,87.008-.3,92.52-.3a25.048,25.048,0,0,0,11.192-2.5,18.4,18.4,0,0,0,7.564-6.86l2.1-3.473.667,4a12.468,12.468,0,0,0,1.286,3.5c1.943,3.452,5.291,5.2,9.954,5.2a22.162,22.162,0,0,0,5.082-.588,7.912,7.912,0,0,0,2.418-.9V-34.92a30.477,30.477,0,0,0-1.7-10.692,17.9,17.9,0,0,0-5.129-7.462,23.179,23.179,0,0,0-8.984-4.567A50.323,50.323,0,0,0,103.56-59.22a58.9,58.9,0,0,0-15.583,1.729c-3.863,1.09-6.759,2.717-8.607,4.837l-.042.046A9.876,9.876,0,0,0,76.62-45.48a5.831,5.831,0,0,0,3.438,5.622A16.3,16.3,0,0,0,87-38.473a18.3,18.3,0,0,0,2.278-.13,11.922,11.922,0,0,1,3.951-4.833A15.369,15.369,0,0,1,102.24-45.9a11.492,11.492,0,0,1,7.172,2.053,9.041,9.041,0,0,1,3.309,6.286,11.838,11.838,0,0,1,.259,2.281v1.5ZM279.24,2.1h-2.4c-3.785,0-6.595-.914-8.589-2.793a9.8,9.8,0,0,1-2.518-4.046,18.23,18.23,0,0,1-.834-5.821V-57.48a2.6,2.6,0,0,1,1.411-2.036,11.086,11.086,0,0,1,2.223-1.016,20.745,20.745,0,0,1,6.625-1.087,15.732,15.732,0,0,1,7.3,1.638,13.319,13.319,0,0,1,5.893,6.222q.052.085.1.173a16.691,16.691,0,0,1,4.123-5.111A15.8,15.8,0,0,1,302.76-62.22a14.236,14.236,0,0,1,10.23,3.773,13.714,13.714,0,0,1,3.87,10.087A14.755,14.755,0,0,1,312.9-37.876c-1.854,1.945-4.126,3.149-5.168,3.149h0a1.567,1.567,0,0,1-1.052-.393,11.068,11.068,0,0,0-7.162-2.74c-3.683,0-8.58,1.362-8.58,13.14v14.16c0,4.376-1.129,7.677-3.357,9.813C285.612,1.142,282.805,2.1,279.24,2.1ZM267.9-56.976V-10.56a15.285,15.285,0,0,0,.674,4.856,6.751,6.751,0,0,0,1.735,2.828C271.72-1.547,273.856-.9,276.84-.9h2.4c2.765,0,4.874-.677,6.267-2.013,1.614-1.548,2.433-4.121,2.433-7.647V-24.72c0-5.244.895-9.107,2.735-11.809,1.957-2.874,4.933-4.331,8.845-4.331a13.544,13.544,0,0,1,5.193,1.044,14.532,14.532,0,0,1,3.3,1.91,9.956,9.956,0,0,0,2.961-2.3,11.84,11.84,0,0,0,2.886-8.15,10.8,10.8,0,0,0-2.97-7.943,11.315,11.315,0,0,0-8.13-2.917,13.715,13.715,0,0,0-4.57.751,12.2,12.2,0,0,0-3.7,2.088,14.8,14.8,0,0,0-4.685,7.473l-1.539,5.387L286.9-48.956a12.51,12.51,0,0,0-1.137-3.289l-.045-.072-.036-.076c-1.976-4.132-5.518-6.227-10.527-6.227A15.564,15.564,0,0,0,267.9-56.976Zm153.3,46a9.138,9.138,0,0,1-5.9-1.873,6.738,6.738,0,0,1-2.435-5.387,6.964,6.964,0,0,1,1.24-4.1,8.454,8.454,0,0,1,3.385-2.7c2.562-1.21,6.2-1.831,11.117-1.9l4.779-.177v5.582a10.44,10.44,0,0,1-3.614,7.705A12.945,12.945,0,0,1,421.2-10.98ZM430.38-24l-1.72.063c-4.427.059-7.756.6-9.894,1.611-1.982.936-2.906,2.236-2.906,4.089a3.782,3.782,0,0,0,1.345,3.073,6.214,6.214,0,0,0,4,1.187,10.009,10.009,0,0,0,6.615-2.13,7.505,7.505,0,0,0,2.565-5.524ZM100.8-10.98a9.138,9.138,0,0,1-5.9-1.873A6.738,6.738,0,0,1,92.46-18.24a6.964,6.964,0,0,1,1.24-4.1,8.454,8.454,0,0,1,3.385-2.7c2.562-1.21,6.2-1.831,11.117-1.9l4.779-.177v5.582a10.44,10.44,0,0,1-3.614,7.705A12.945,12.945,0,0,1,100.8-10.98ZM109.98-24l-1.72.063c-4.427.059-7.756.6-9.894,1.611-1.982.936-2.906,2.236-2.906,4.089A3.782,3.782,0,0,0,96.8-15.167a6.214,6.214,0,0,0,4,1.187,10.009,10.009,0,0,0,6.615-2.13,7.505,7.505,0,0,0,2.565-5.524Zm241.5,9.3a12.83,12.83,0,0,1-5.3-1.1,11.952,11.952,0,0,1-4.158-3.109,13.94,13.94,0,0,1-2.644-4.71,18.465,18.465,0,0,1-.917-5.9c0-9,5.252-14.82,13.38-14.82a13.061,13.061,0,0,1,7.27,2.059,13.136,13.136,0,0,1,4.64,5.387l.15.31v9.944a11.581,11.581,0,0,1-3.553,8.748,11.433,11.433,0,0,1-3.972,2.384A14.505,14.505,0,0,1,351.48-14.7Zm.36-26.64a9.792,9.792,0,0,0-7.526,3.06c-1.867,2.07-2.854,5.1-2.854,8.76a15.477,15.477,0,0,0,.76,4.944,10.961,10.961,0,0,0,2.07,3.7A9.208,9.208,0,0,0,351.48-17.7a9.788,9.788,0,0,0,6.823-2.388,8.662,8.662,0,0,0,2.6-6.552v-9.245a10.078,10.078,0,0,0-3.43-3.884A10.114,10.114,0,0,0,351.84-41.34Z" transform="translate(-0.78 85.98)" fill="#ef658a"/></svg>