<svg xmlns="http://www.w3.org/2000/svg" width="544.237" height="110.04" viewBox="0 0 544.237 110.04"><path d="M504.24,24.06a18.567,18.567,0,0,1-8.483-2.25,13.64,13.64,0,0,1-4.964-4.014,2.238,2.238,0,0,1-.264-2.248l8.96-18.915a10.151,10.151,0,0,1-2.365-1.21,7.736,7.736,0,0,1-2.787-3.483L474.647-53.083a2.3,2.3,0,0,1,.383-2.181,15.349,15.349,0,0,1,5.2-4.133,19.748,19.748,0,0,1,8.746-2.463H489a12.26,12.26,0,0,1,7.715,2.536c2.511,1.951,4.393,5,5.595,9.071l7.4,21.7,6.9-21.688c1.2-4.029,3.086-7.069,5.593-9.034a12.2,12.2,0,0,1,7.721-2.585,18.156,18.156,0,0,1,8.383,2.327,14.8,14.8,0,0,1,5.114,4.158,2.4,2.4,0,0,1,.37,2.307l-25.91,65.855C514.957,20.373,510.5,24.06,504.24,24.06Zm-10.785-7.68a11.526,11.526,0,0,0,3.384,2.605,15.694,15.694,0,0,0,7.4,2.075,9.293,9.293,0,0,0,5.921-1.92c1.946-1.509,3.6-4.011,4.919-7.438l0-.011,25.772-65.5a11.713,11.713,0,0,0-3.55-2.842,15.675,15.675,0,0,0-7.386-2.205,9.27,9.27,0,0,0-5.869,1.945c-2.011,1.577-3.55,4.115-4.573,7.544l-.008.025-9.66,30.379-10.369-30.41c-1.02-3.467-2.556-6.017-4.566-7.579a9.326,9.326,0,0,0-5.861-1.9,16.913,16.913,0,0,0-7.745,2.314,13.005,13.005,0,0,0-3.639,2.8L497.113-9.2c.7,1.744,2.27,2.86,4.806,3.411l1.845.4ZM361.92,3.18A28.054,28.054,0,0,1,350.247.751a25.944,25.944,0,0,1-9.042-6.826,30.852,30.852,0,0,1-5.768-10.4A41.64,41.64,0,0,1,333.42-29.64c0-9.7,2.686-17.893,7.767-23.684a25.262,25.262,0,0,1,9.087-6.6A29.639,29.639,0,0,1,362.04-62.22a24.6,24.6,0,0,1,10.722,2.386A20.964,20.964,0,0,1,377.7-56.5V-81.84a2.6,2.6,0,0,1,1.444-2.045A11.5,11.5,0,0,1,381.4-84.9a21.288,21.288,0,0,1,6.677-1.085,14.862,14.862,0,0,1,10.6,3.917c3.359,3.248,5.062,8.329,5.062,15.1v56.4c0,4.339-1.111,7.622-3.3,9.759-1.974,1.925-4.8,2.9-8.4,2.9h-2.28A13.309,13.309,0,0,1,382.828.509a9.322,9.322,0,0,1-4.145-5.562A20.414,20.414,0,0,1,361.92,3.18Zm.12-62.4c-7.647,0-14.077,2.723-18.6,7.874C338.848-46.11,336.42-38.6,336.42-29.64a38.652,38.652,0,0,0,1.864,12.216,27.87,27.87,0,0,0,5.2,9.4,22.965,22.965,0,0,0,8,6.044A25.076,25.076,0,0,0,361.92.18,19.183,19.183,0,0,0,367.2-.54a17.179,17.179,0,0,0,4.52-2.029,17.488,17.488,0,0,0,6.366-7.312l2.311-4.888.538,5.38a28.7,28.7,0,0,0,.564,3.267,6.429,6.429,0,0,0,2.866,4.053A10.468,10.468,0,0,0,389.76-.9h2.28c2.788,0,4.908-.689,6.3-2.049,1.591-1.551,2.4-4.112,2.4-7.611v-56.4c0-5.93-1.4-10.286-4.148-12.947a10.418,10.418,0,0,0-3.99-2.387,14.3,14.3,0,0,0-4.522-.686,16.01,16.01,0,0,0-7.38,1.655v33.483l-2.725-3.852a17.179,17.179,0,0,0-6.527-5.443A21.584,21.584,0,0,0,362.04-59.22ZM171.96,3.06a24.872,24.872,0,0,1-10.384-2.054,18.613,18.613,0,0,1-7.062-5.594c-3.306-4.274-5.053-10.24-5.053-17.253V-49.08c0-4.279,1.106-7.527,3.288-9.654,1.964-1.915,4.754-2.886,8.292-2.886h2.4c3.8,0,6.625.889,8.63,2.716a9.645,9.645,0,0,1,2.573,4.008,17.713,17.713,0,0,1,.857,5.815V-25.8a8.019,8.019,0,0,0,1.622,5.355,5.77,5.77,0,0,0,4.558,1.785,8.788,8.788,0,0,0,7.26-3.644V-49.08a17.71,17.71,0,0,1,.831-5.7,9.9,9.9,0,0,1,2.481-4c1.961-1.879,4.783-2.832,8.388-2.832h2.4c3.747,0,6.537.89,8.53,2.72a9.678,9.678,0,0,1,2.556,4.006,17.765,17.765,0,0,1,.854,5.814V-2.04a2.536,2.536,0,0,1-1.455,2A12.308,12.308,0,0,1,211.289.966,20.883,20.883,0,0,1,204.6,2.1,15.99,15.99,0,0,1,196.944.331a13.668,13.668,0,0,1-5.971-6.57,24.849,24.849,0,0,1-6.413,5.921,21.5,21.5,0,0,1-5.686,2.492A26.011,26.011,0,0,1,171.96,3.06ZM161.04-58.62c-2.728,0-4.813.684-6.2,2.034-1.581,1.541-2.382,4.066-2.382,7.506v27.24c0,6.342,1.531,11.674,4.426,15.417,3.327,4.3,8.4,6.483,15.074,6.483a20.146,20.146,0,0,0,11.009-2.922,23.977,23.977,0,0,0,7.292-7.554l2.237-3.451.51,4.081a8.268,8.268,0,0,0,.477,1.723c.051.144.1.292.154.439C195.626-3.162,199.314-.9,204.6-.9a18.034,18.034,0,0,0,5.1-.77,10.75,10.75,0,0,0,2.281-.939V-49.08a14.823,14.823,0,0,0-.687-4.825,6.63,6.63,0,0,0-1.753-2.785c-1.413-1.3-3.54-1.93-6.5-1.93h-2.4c-2.844,0-4.909.654-6.312,2-1.585,1.518-2.388,4.056-2.388,7.542v27.686l-.244.373a11.826,11.826,0,0,1-4.143,3.867,11.947,11.947,0,0,1-5.874,1.494,8.744,8.744,0,0,1-6.812-2.8A10.915,10.915,0,0,1,172.5-25.8V-49.08c0-3.616-.8-6.1-2.45-7.606-1.428-1.3-3.59-1.934-6.61-1.934ZM301.92,2.82c-9.451,0-16.645-1.4-21.382-4.156-4.4-2.465-6.638-6.134-6.638-10.9a11.157,11.157,0,0,1,2.69-6.994,12.171,12.171,0,0,1,2.07-2.011,3.533,3.533,0,0,1,2.132-.936,1.669,1.669,0,0,1,1.147.441,25.05,25.05,0,0,0,7.682,4.577,29.446,29.446,0,0,0,10.5,1.984,10.316,10.316,0,0,0,4.665-.792c.912-.473,1.035-.988,1.035-1.428,0-.34,0-.909-1.493-1.588a36.67,36.67,0,0,0-6.092-1.7l-.714-.163-.463-.1c-3.866-.807-9.16-1.913-13.58-4.71-5.4-3.417-8.137-8.551-8.137-15.259a18.8,18.8,0,0,1,7.475-15.533,25.8,25.8,0,0,1,8.758-4.2A43.063,43.063,0,0,1,303.12-62.1a49.793,49.793,0,0,1,15.956,2.167c4.25,1.47,7.266,3.687,8.964,6.59a11.355,11.355,0,0,1,1.78,6.3,11.5,11.5,0,0,1-3.111,7.442,14.546,14.546,0,0,1-2.282,2.108,3.682,3.682,0,0,1-2.153.973,1.591,1.591,0,0,1-1.119-.447h0a26.927,26.927,0,0,0-7.593-5.062A21.857,21.857,0,0,0,304.8-44.1a8.95,8.95,0,0,0-4.4.838,1.735,1.735,0,0,0-1.057,1.622c0,.242,0,.646,1.228,1.191a33.66,33.66,0,0,0,5.421,1.483c.761.171,1.549.347,2.385.544l.746.165c3.944.868,9.345,2.057,13.84,4.846a16.607,16.607,0,0,1,8.3,14.932,20.472,20.472,0,0,1-1.936,9.014,18.094,18.094,0,0,1-5.764,6.781C318.517.968,311.236,2.82,301.92,2.82ZM280.588-18.939a9.29,9.29,0,0,0-1.91,1.9,8.089,8.089,0,0,0-1.778,4.8,8.912,8.912,0,0,0,1.2,4.7,10.112,10.112,0,0,0,3.914,3.586l.024.014a25.651,25.651,0,0,0,7.918,2.749A62.99,62.99,0,0,0,301.92-.18,47.8,47.8,0,0,0,313.6-1.472a24,24,0,0,0,8.2-3.642c4.286-3.105,6.46-7.6,6.46-13.365a13.607,13.607,0,0,0-6.881-12.382c-4.059-2.518-9.171-3.644-12.9-4.465l-.762-.168-.018,0c-.824-.194-1.607-.369-2.363-.539a34.425,34.425,0,0,1-5.982-1.668,5.809,5.809,0,0,1-2.1-1.449,3.691,3.691,0,0,1-.916-2.484,4.754,4.754,0,0,1,2.573-4.228A11.973,11.973,0,0,1,304.8-47.1a24.858,24.858,0,0,1,9.989,2.336,30.5,30.5,0,0,1,7.72,4.961c1.355-.955,4.312-3.756,4.312-7.237a8.33,8.33,0,0,0-1.322-4.709l-.035-.057c-1.324-2.277-3.8-4.058-7.369-5.291a46.9,46.9,0,0,0-14.975-2c-7.775,0-14.168,1.74-18.485,5.033a15.641,15.641,0,0,0-4.683,5.661,17.1,17.1,0,0,0-1.612,7.486c0,5.691,2.205,9.853,6.742,12.724,3.961,2.506,8.948,3.548,12.589,4.308l.5.106.727.166a37.4,37.4,0,0,1,6.667,1.9,6.308,6.308,0,0,1,2.283,1.619,4.084,4.084,0,0,1,.968,2.7,4.514,4.514,0,0,1-2.655,4.092,13.377,13.377,0,0,1-6.046,1.128,32.477,32.477,0,0,1-11.581-2.186A28.382,28.382,0,0,1,280.588-18.939ZM429.72,2.7c-6.245,0-11.544-1.735-15.323-5.017a16.5,16.5,0,0,1-4.344-5.907,18.935,18.935,0,0,1-1.513-7.616,16.625,16.625,0,0,1,2.631-9.258,19.85,19.85,0,0,1,7.544-6.559c6.321-3.338,15.552-5.062,27.438-5.124h.865c-.016-.085-.032-.168-.048-.246l-.011-.054-.007-.054c-.492-3.934-2.879-5.766-7.512-5.766a12.474,12.474,0,0,0-7.281,1.917,9.066,9.066,0,0,0-3.2,4.2c-.354.94-1.368,1.065-2.186,1.166a21.853,21.853,0,0,1-2.573.144,18.9,18.9,0,0,1-8.3-1.71,8.811,8.811,0,0,1-5.078-8.3,12.913,12.913,0,0,1,3.51-9.17c2.238-2.555,5.613-4.482,10.033-5.729a61.809,61.809,0,0,1,16.4-1.841,53.276,53.276,0,0,1,14.216,1.691,26.137,26.137,0,0,1,10.134,5.183,21.111,21.111,0,0,1,5.978,8.678A33.434,33.434,0,0,1,472.98-34.92V-1.56A2.646,2.646,0,0,1,471.491.683a9.92,9.92,0,0,1-2.425,1.012,24.548,24.548,0,0,1-6.586.885c-5.762,0-10.115-2.34-12.589-6.768l-.032-.061c-.214-.428-.427-.869-.626-1.325a21.912,21.912,0,0,1-6.974,5.46A28.055,28.055,0,0,1,429.72,2.7Zm16.448-36.48c-11.4.059-20.163,1.666-26.052,4.776a16.908,16.908,0,0,0-6.433,5.546,13.678,13.678,0,0,0-2.143,7.617,14.4,14.4,0,0,0,4.823,11.257C419.59-1.781,424.208-.3,429.72-.3a25.047,25.047,0,0,0,11.192-2.5,18.4,18.4,0,0,0,7.564-6.86l2.1-3.473.667,4a12.469,12.469,0,0,0,1.286,3.5c1.942,3.452,5.291,5.2,9.954,5.2a22.161,22.161,0,0,0,5.082-.588,7.913,7.913,0,0,0,2.418-.9V-34.92a30.476,30.476,0,0,0-1.7-10.692,17.9,17.9,0,0,0-5.13-7.462,23.179,23.179,0,0,0-8.984-4.567A50.324,50.324,0,0,0,440.76-59.22a58.9,58.9,0,0,0-15.583,1.729c-3.863,1.09-6.759,2.717-8.607,4.837l-.042.046a9.876,9.876,0,0,0-2.709,7.128,5.831,5.831,0,0,0,3.438,5.622,16.3,16.3,0,0,0,6.944,1.384,18.294,18.294,0,0,0,2.278-.13,11.922,11.922,0,0,1,3.951-4.833A15.37,15.37,0,0,1,439.44-45.9a11.492,11.492,0,0,1,7.172,2.053,9.042,9.042,0,0,1,3.31,6.286,11.84,11.84,0,0,1,.259,2.281v1.5ZM236.88,2.1h-2.4c-3.785,0-6.595-.914-8.589-2.793a9.8,9.8,0,0,1-2.518-4.046,18.23,18.23,0,0,1-.833-5.821V-57.48a2.6,2.6,0,0,1,1.411-2.036,11.089,11.089,0,0,1,2.223-1.016A20.744,20.744,0,0,1,232.8-61.62a15.732,15.732,0,0,1,7.3,1.638A13.319,13.319,0,0,1,246-53.76q.052.085.1.172a16.692,16.692,0,0,1,4.123-5.111A15.8,15.8,0,0,1,260.4-62.22a14.236,14.236,0,0,1,10.23,3.773A13.715,13.715,0,0,1,274.5-48.36a14.755,14.755,0,0,1-3.958,10.484c-1.854,1.945-4.126,3.149-5.168,3.149h0a1.568,1.568,0,0,1-1.046-.389,11.068,11.068,0,0,0-7.167-2.745c-3.683,0-8.58,1.362-8.58,13.14v14.16c0,4.376-1.129,7.677-3.357,9.813C243.252,1.142,240.445,2.1,236.88,2.1ZM225.54-56.976V-10.56a15.287,15.287,0,0,0,.674,4.856,6.751,6.751,0,0,0,1.735,2.828C229.36-1.546,231.5-.9,234.48-.9h2.4c2.765,0,4.874-.677,6.267-2.013,1.614-1.548,2.433-4.121,2.433-7.647V-24.72c0-5.244.895-9.107,2.735-11.809,1.957-2.874,4.933-4.331,8.845-4.331a13.544,13.544,0,0,1,5.193,1.044,14.531,14.531,0,0,1,3.3,1.91,9.956,9.956,0,0,0,2.961-2.3,11.841,11.841,0,0,0,2.886-8.15,10.8,10.8,0,0,0-2.97-7.943,11.315,11.315,0,0,0-8.13-2.917,13.714,13.714,0,0,0-4.57.751,12.2,12.2,0,0,0-3.7,2.088,14.8,14.8,0,0,0-4.685,7.473L245.9-43.522l-1.359-5.434a12.514,12.514,0,0,0-1.137-3.289l-.045-.072-.036-.076c-1.976-4.132-5.518-6.227-10.527-6.227A15.566,15.566,0,0,0,225.54-56.976ZM131.52,2.1h-2.4c-3.793,0-6.619-.911-8.64-2.785a9.824,9.824,0,0,1-2.564-4.044,17.878,17.878,0,0,1-.856-5.831V-32.88c0-2.846-.772-7.62-5.94-7.62-6.2,0-7.5,4.4-7.5,8.1v21.84c0,4.376-1.129,7.677-3.357,9.813C98.292,1.142,95.485,2.1,91.92,2.1h-2.4c-3.739,0-6.532-.912-8.539-2.789a9.86,9.86,0,0,1-2.547-4.042,17.933,17.933,0,0,1-.853-5.829V-81.84a2.6,2.6,0,0,1,1.444-2.045A11.5,11.5,0,0,1,81.283-84.9,21.288,21.288,0,0,1,87.96-85.98a14.862,14.862,0,0,1,10.6,3.917c3.359,3.248,5.062,8.329,5.062,15.1v12.249a20.93,20.93,0,0,1,4.918-4.31,22.338,22.338,0,0,1,12.062-3.2,24.046,24.046,0,0,1,10.406,2.146,18.764,18.764,0,0,1,7.058,5.824c3.294,4.437,5.036,10.623,5.036,17.889v25.8c0,4.331-1.1,7.613-3.283,9.755C137.856,1.123,135.064,2.1,131.52,2.1Zm-20.4-45.6a8.244,8.244,0,0,1,6.636,2.951,11.981,11.981,0,0,1,2.3,7.669v22.32a14.933,14.933,0,0,0,.689,4.846,6.77,6.77,0,0,0,1.771,2.83c1.44,1.336,3.6,1.985,6.6,1.985h2.4c2.73,0,4.814-.688,6.193-2.045C139.3-4.5,140.1-7.064,140.1-10.56v-25.8c0-6.617-1.537-12.185-4.444-16.1-3.33-4.485-8.4-6.759-15.056-6.759a19.137,19.137,0,0,0-10.468,2.741,20.109,20.109,0,0,0-6.711,7.306l-2.8,4.879V-66.96c0-5.93-1.4-10.286-4.148-12.947a10.418,10.418,0,0,0-3.99-2.387,14.3,14.3,0,0,0-4.522-.686,16.01,16.01,0,0,0-7.38,1.655V-10.56a14.986,14.986,0,0,0,.688,4.847,6.807,6.807,0,0,0,1.761,2.832C84.455-1.548,86.578-.9,89.52-.9h2.4c2.765,0,4.874-.677,6.267-2.013,1.615-1.548,2.433-4.121,2.433-7.647V-32.4a14.485,14.485,0,0,1,.673-4.554,9.571,9.571,0,0,1,2.072-3.566,8.908,8.908,0,0,1,3.388-2.243A12.311,12.311,0,0,1,111.12-43.5ZM38.52,2.1H35.04c-3.724,0-6.609-1.123-8.577-3.339C24.55-3.394,23.58-6.53,23.58-10.56v-44.7H12.24c-3.983,0-7.095-1.031-9.249-3.064C.807-60.384-.3-63.37-.3-67.2v-.48c0-7.39,4.453-11.46,12.54-11.46H61.68c4.077,0,7.23.971,9.37,2.887,2.183,1.954,3.29,4.838,3.29,8.573v.48c0,3.848-1.1,6.835-3.261,8.876s-5.317,3.064-9.4,3.064H50.7v44.7c0,4.025-1.076,7.177-3.2,9.368S42.366,2.1,38.52,2.1ZM12.24-76.14c-3.217,0-5.646.714-7.22,2.123-1.54,1.378-2.32,3.51-2.32,6.337v.48c0,2.971.79,5.223,2.349,6.694,1.58,1.49,4,2.246,7.191,2.246H26.58v47.7c0,3.274.715,5.74,2.127,7.329C30.08-1.684,32.211-.9,35.04-.9h3.48c6.091,0,9.18-3.25,9.18-9.66v-47.7H61.68c3.291,0,5.761-.756,7.341-2.246,1.539-1.452,2.319-3.7,2.319-6.694v-.48c0-2.885-.749-4.958-2.29-6.337C67.476-75.426,65-76.14,61.68-76.14ZM438-10.98a9.138,9.138,0,0,1-5.9-1.873,6.738,6.738,0,0,1-2.435-5.387,6.964,6.964,0,0,1,1.24-4.1,8.455,8.455,0,0,1,3.385-2.7c2.562-1.21,6.2-1.831,11.116-1.9l4.779-.177v5.582a10.44,10.44,0,0,1-3.614,7.705A12.945,12.945,0,0,1,438-10.98ZM447.18-24l-1.72.063c-4.427.059-7.756.6-9.894,1.611-1.982.936-2.906,2.236-2.906,4.089A3.782,3.782,0,0,0,434-15.167a6.215,6.215,0,0,0,4,1.187,10.009,10.009,0,0,0,6.615-2.13,7.506,7.506,0,0,0,2.565-5.523Zm-78.9,9.3a12.83,12.83,0,0,1-5.3-1.1,11.954,11.954,0,0,1-4.158-3.109,13.943,13.943,0,0,1-2.644-4.71,18.464,18.464,0,0,1-.917-5.9c0-9,5.252-14.82,13.38-14.82a13.061,13.061,0,0,1,7.27,2.059,13.136,13.136,0,0,1,4.64,5.387l.15.31v9.944a11.581,11.581,0,0,1-3.553,8.748,11.433,11.433,0,0,1-3.972,2.384A14.507,14.507,0,0,1,368.28-14.7Zm.36-26.64a9.792,9.792,0,0,0-7.526,3.06c-1.867,2.07-2.854,5.1-2.854,8.76a15.477,15.477,0,0,0,.76,4.944,10.96,10.96,0,0,0,2.07,3.7A9.208,9.208,0,0,0,368.28-17.7a9.788,9.788,0,0,0,6.823-2.388,8.662,8.662,0,0,0,2.6-6.552v-9.245a10.078,10.078,0,0,0-3.43-3.884A10.115,10.115,0,0,0,368.64-41.34Z" transform="translate(0.3 85.98)" fill="#ef658a"/></svg>