<svg xmlns="http://www.w3.org/2000/svg" width="477.877" height="110.04" viewBox="0 0 477.877 110.04"><path d="M437.88,24.06a18.567,18.567,0,0,1-8.483-2.25,13.641,13.641,0,0,1-4.964-4.014,2.238,2.238,0,0,1-.263-2.25l8.959-18.914a10.15,10.15,0,0,1-2.365-1.21,7.736,7.736,0,0,1-2.787-3.482L408.287-53.083a2.3,2.3,0,0,1,.383-2.181,15.349,15.349,0,0,1,5.2-4.133,19.748,19.748,0,0,1,8.746-2.463h.026a12.259,12.259,0,0,1,7.715,2.536c2.511,1.951,4.393,5,5.595,9.071l7.4,21.7,6.9-21.687c1.2-4.029,3.086-7.069,5.593-9.035a12.2,12.2,0,0,1,7.721-2.585,18.156,18.156,0,0,1,8.383,2.327,14.8,14.8,0,0,1,5.114,4.158,2.4,2.4,0,0,1,.37,2.307l-25.908,65.85C448.6,20.371,444.137,24.06,437.88,24.06Zm-10.785-7.68a11.527,11.527,0,0,0,3.384,2.605,15.694,15.694,0,0,0,7.4,2.075,9.294,9.294,0,0,0,5.921-1.92c1.946-1.509,3.6-4.012,4.919-7.438l0-.011,25.772-65.5a11.712,11.712,0,0,0-3.55-2.842,15.674,15.674,0,0,0-7.386-2.205,9.27,9.27,0,0,0-5.869,1.945c-2.011,1.577-3.55,4.115-4.573,7.544l-.008.025-9.66,30.379-10.369-30.41c-1.02-3.467-2.556-6.017-4.566-7.579a9.326,9.326,0,0,0-5.862-1.9,16.916,16.916,0,0,0-7.743,2.314,13.006,13.006,0,0,0-3.639,2.8L430.753-9.2c.7,1.744,2.27,2.86,4.806,3.411l1.845.4ZM295.56,3.18A28.054,28.054,0,0,1,283.887.751a25.943,25.943,0,0,1-9.042-6.826,30.852,30.852,0,0,1-5.768-10.4A41.64,41.64,0,0,1,267.06-29.64c0-9.7,2.686-17.893,7.767-23.684a25.262,25.262,0,0,1,9.087-6.6A29.638,29.638,0,0,1,295.68-62.22,24.6,24.6,0,0,1,306.4-59.833,20.963,20.963,0,0,1,311.34-56.5V-81.84a2.6,2.6,0,0,1,1.444-2.045,11.5,11.5,0,0,1,2.259-1.011,21.287,21.287,0,0,1,6.677-1.085,14.862,14.862,0,0,1,10.6,3.917c3.359,3.248,5.062,8.329,5.062,15.1v56.4c0,4.339-1.111,7.622-3.3,9.759-1.974,1.925-4.8,2.9-8.4,2.9H323.4A13.309,13.309,0,0,1,316.468.509a9.322,9.322,0,0,1-4.145-5.562A20.414,20.414,0,0,1,295.56,3.18Zm.12-62.4c-7.647,0-14.077,2.723-18.6,7.874C272.488-46.11,270.06-38.6,270.06-29.64a38.653,38.653,0,0,0,1.864,12.216,27.87,27.87,0,0,0,5.2,9.4,22.965,22.965,0,0,0,8,6.044A25.076,25.076,0,0,0,295.56.18a19.179,19.179,0,0,0,5.278-.72,17.177,17.177,0,0,0,4.52-2.029,17.489,17.489,0,0,0,6.366-7.312l2.311-4.888.538,5.38a28.714,28.714,0,0,0,.564,3.267A6.429,6.429,0,0,0,318-2.069,10.468,10.468,0,0,0,323.4-.9h2.28c2.788,0,4.908-.689,6.3-2.049,1.591-1.551,2.4-4.112,2.4-7.611v-56.4c0-5.93-1.4-10.286-4.148-12.947a10.417,10.417,0,0,0-3.99-2.387,14.3,14.3,0,0,0-4.523-.686,16.01,16.01,0,0,0-7.38,1.655v33.483l-2.725-3.852a17.18,17.18,0,0,0-6.527-5.443A21.585,21.585,0,0,0,295.68-59.22ZM175.44,3.18c-21.28,0-34.5-12.346-34.5-32.22a35.488,35.488,0,0,1,2.456-13.2,31.326,31.326,0,0,1,6.874-10.536,31.11,31.11,0,0,1,10.491-6.949A35.129,35.129,0,0,1,174-62.22,35.944,35.944,0,0,1,186.984-59.9,30.059,30.059,0,0,1,197.2-53.41a29.012,29.012,0,0,1,6.656,9.892A32.709,32.709,0,0,1,206.22-31.08v1.132a8.387,8.387,0,0,1-1.332,4.91,5.6,5.6,0,0,1-4.847,2.058H164.115a9.993,9.993,0,0,0,4.2,5.473,14.686,14.686,0,0,0,7.963,2.087,17.277,17.277,0,0,0,8.218-1.848A10.832,10.832,0,0,0,189.1-21.8a1.806,1.806,0,0,1,1.766-.865,15.682,15.682,0,0,1,6.709,1.731,9.385,9.385,0,0,1,5.281,8.7,11.162,11.162,0,0,1-2,6.362A16.547,16.547,0,0,1,195.4-.984l-.015.009C190.522,1.782,183.813,3.18,175.44,3.18ZM174-59.22a32.145,32.145,0,0,0-12.114,2.276,28.127,28.127,0,0,0-9.486,6.281,28.342,28.342,0,0,0-6.217,9.534,32.5,32.5,0,0,0-2.243,12.09,33.187,33.187,0,0,0,2.2,12.344,24.81,24.81,0,0,0,6.215,9.114C157.849-2.5,165.832.18,175.44.18c7.843,0,14.052-1.265,18.453-3.761a13.59,13.59,0,0,0,4.486-3.982,8.215,8.215,0,0,0,1.481-4.678,6.6,6.6,0,0,0-1.091-3.817,7.19,7.19,0,0,0-2.6-2.231,12.8,12.8,0,0,0-4.835-1.361,13.993,13.993,0,0,1-5.422,5.027,20.227,20.227,0,0,1-9.632,2.2,17.659,17.659,0,0,1-9.587-2.563,13.106,13.106,0,0,1-5.5-7.273,8.676,8.676,0,0,1-.548-1.929l-.359-1.794h39.75c1.62,0,2.17-.486,2.443-.852a5.935,5.935,0,0,0,.737-3.195V-31.08a29.724,29.724,0,0,0-2.14-11.3,26.03,26.03,0,0,0-5.97-8.876,27.077,27.077,0,0,0-9.2-5.843A32.96,32.96,0,0,0,174-59.22ZM94.08,3.06A24.872,24.872,0,0,1,83.7,1.006a18.613,18.613,0,0,1-7.062-5.594C73.327-8.861,71.58-14.827,71.58-21.84V-49.08c0-4.279,1.106-7.527,3.288-9.654,1.964-1.915,4.754-2.886,8.292-2.886h2.4c3.8,0,6.625.889,8.63,2.716A9.644,9.644,0,0,1,96.763-54.9a17.713,17.713,0,0,1,.857,5.815V-25.8a8.018,8.018,0,0,0,1.622,5.355A5.769,5.769,0,0,0,103.8-18.66a8.788,8.788,0,0,0,7.26-3.644V-49.08a17.71,17.71,0,0,1,.831-5.7,9.906,9.906,0,0,1,2.481-4c1.961-1.879,4.783-2.832,8.388-2.832h2.4c3.747,0,6.537.89,8.53,2.72a9.679,9.679,0,0,1,2.556,4.006,17.766,17.766,0,0,1,.854,5.814V-2.04a2.536,2.536,0,0,1-1.455,2A12.306,12.306,0,0,1,133.409.966,20.883,20.883,0,0,1,126.72,2.1,15.99,15.99,0,0,1,119.064.331a13.668,13.668,0,0,1-5.971-6.57,24.848,24.848,0,0,1-6.413,5.921,21.5,21.5,0,0,1-5.686,2.492A26.014,26.014,0,0,1,94.08,3.06ZM83.16-58.62c-2.728,0-4.813.684-6.2,2.034-1.581,1.541-2.382,4.066-2.382,7.506v27.24c0,6.342,1.531,11.674,4.426,15.417C82.334-2.121,87.405.06,94.08.06a20.146,20.146,0,0,0,11.009-2.922,23.978,23.978,0,0,0,7.292-7.554l2.237-3.451.51,4.081a8.271,8.271,0,0,0,.477,1.723c.051.144.1.293.154.439C117.747-3.163,121.434-.9,126.72-.9a18.034,18.034,0,0,0,5.1-.77,10.748,10.748,0,0,0,2.281-.939V-49.08a14.823,14.823,0,0,0-.687-4.825,6.63,6.63,0,0,0-1.753-2.785c-1.413-1.3-3.54-1.93-6.5-1.93h-2.4c-2.845,0-4.909.654-6.312,2-1.584,1.518-2.388,4.056-2.388,7.542v27.686l-.244.374a11.825,11.825,0,0,1-4.143,3.867A11.947,11.947,0,0,1,103.8-15.66a8.744,8.744,0,0,1-6.812-2.8A10.916,10.916,0,0,1,94.62-25.8V-49.08c0-3.616-.8-6.1-2.45-7.606-1.428-1.3-3.59-1.934-6.61-1.934ZM235.56,2.82c-9.453,0-16.647-1.4-21.384-4.158-4.4-2.465-6.636-6.133-6.636-10.9a11.157,11.157,0,0,1,2.69-6.994,12.173,12.173,0,0,1,2.07-2.011,3.533,3.533,0,0,1,2.132-.936,1.669,1.669,0,0,1,1.149.442,25.054,25.054,0,0,0,7.68,4.575,29.446,29.446,0,0,0,10.5,1.984,10.316,10.316,0,0,0,4.665-.792c.912-.473,1.035-.988,1.035-1.428,0-.34,0-.909-1.493-1.588a36.67,36.67,0,0,0-6.092-1.7l-.717-.164-.46-.1c-3.866-.807-9.16-1.913-13.58-4.71-5.4-3.417-8.137-8.551-8.137-15.259a18.8,18.8,0,0,1,7.475-15.533,25.8,25.8,0,0,1,8.757-4.2A43.066,43.066,0,0,1,236.76-62.1a49.792,49.792,0,0,1,15.955,2.167c4.25,1.471,7.266,3.688,8.965,6.59a11.355,11.355,0,0,1,1.78,6.3,11.5,11.5,0,0,1-3.111,7.442,14.547,14.547,0,0,1-2.282,2.108,3.682,3.682,0,0,1-2.153.973,1.591,1.591,0,0,1-1.125-.452,26.934,26.934,0,0,0-7.588-5.057A21.858,21.858,0,0,0,238.44-44.1a8.95,8.95,0,0,0-4.4.838,1.735,1.735,0,0,0-1.057,1.622c0,.242,0,.646,1.228,1.191a33.665,33.665,0,0,0,5.421,1.483c.761.171,1.547.347,2.384.543l.748.165c3.944.868,9.345,2.057,13.84,4.846a16.607,16.607,0,0,1,8.3,14.932,20.472,20.472,0,0,1-1.936,9.014A18.094,18.094,0,0,1,257.2-2.685C252.157.968,244.876,2.82,235.56,2.82ZM214.228-18.939a9.29,9.29,0,0,0-1.91,1.9,8.089,8.089,0,0,0-1.778,4.8,8.912,8.912,0,0,0,1.2,4.7,10.113,10.113,0,0,0,3.914,3.586l.024.014a25.652,25.652,0,0,0,7.918,2.749A62.991,62.991,0,0,0,235.56-.18a47.8,47.8,0,0,0,11.675-1.292,24,24,0,0,0,8.2-3.642c4.287-3.105,6.46-7.6,6.46-13.365a13.607,13.607,0,0,0-6.881-12.383c-4.059-2.518-9.17-3.644-12.9-4.465l-.762-.168-.018,0c-.824-.194-1.607-.369-2.363-.539a34.425,34.425,0,0,1-5.982-1.668,5.809,5.809,0,0,1-2.1-1.449,3.691,3.691,0,0,1-.916-2.484,4.754,4.754,0,0,1,2.573-4.228A11.973,11.973,0,0,1,238.44-47.1a24.859,24.859,0,0,1,9.989,2.336,30.5,30.5,0,0,1,7.72,4.961c1.355-.955,4.312-3.756,4.312-7.237a8.331,8.331,0,0,0-1.322-4.709l-.035-.057c-1.324-2.277-3.8-4.058-7.369-5.291a46.9,46.9,0,0,0-14.975-2c-7.776,0-14.168,1.74-18.485,5.033a15.64,15.64,0,0,0-4.683,5.661,17.1,17.1,0,0,0-1.612,7.486c0,5.691,2.205,9.853,6.742,12.724,3.961,2.506,8.948,3.548,12.589,4.308l.5.106.727.166a37.4,37.4,0,0,1,6.667,1.9,6.307,6.307,0,0,1,2.283,1.619,4.084,4.084,0,0,1,.968,2.7,4.514,4.514,0,0,1-2.655,4.092,13.377,13.377,0,0,1-6.045,1.128,32.475,32.475,0,0,1-11.581-2.186A28.38,28.38,0,0,1,214.228-18.939ZM363.36,2.7c-6.245,0-11.544-1.735-15.324-5.017a16.5,16.5,0,0,1-4.344-5.907,18.936,18.936,0,0,1-1.513-7.616,16.626,16.626,0,0,1,2.631-9.258,19.852,19.852,0,0,1,7.544-6.559c6.321-3.338,15.552-5.062,27.438-5.124h.865c-.016-.085-.032-.167-.048-.246l-.011-.054-.007-.054c-.492-3.934-2.879-5.766-7.512-5.766a12.475,12.475,0,0,0-7.282,1.917,9.067,9.067,0,0,0-3.2,4.2c-.354.941-1.368,1.066-2.186,1.166a21.861,21.861,0,0,1-2.573.144,18.9,18.9,0,0,1-8.3-1.71,8.811,8.811,0,0,1-5.079-8.3,12.913,12.913,0,0,1,3.51-9.169c2.238-2.555,5.613-4.483,10.033-5.73a61.811,61.811,0,0,1,16.4-1.841,53.278,53.278,0,0,1,14.216,1.691,26.136,26.136,0,0,1,10.134,5.183,21.111,21.111,0,0,1,5.978,8.678A33.434,33.434,0,0,1,406.62-34.92V-1.56A2.646,2.646,0,0,1,405.131.683a9.919,9.919,0,0,1-2.425,1.012,24.549,24.549,0,0,1-6.585.885c-5.762,0-10.115-2.34-12.589-6.768l-.032-.061c-.214-.428-.427-.869-.626-1.325A21.912,21.912,0,0,1,375.9-.115,28.056,28.056,0,0,1,363.36,2.7Zm16.448-36.48c-11.4.059-20.163,1.666-26.052,4.776a16.908,16.908,0,0,0-6.433,5.546,13.678,13.678,0,0,0-2.143,7.617A14.4,14.4,0,0,0,350-4.583C353.23-1.781,357.848-.3,363.36-.3a25.048,25.048,0,0,0,11.192-2.5,18.4,18.4,0,0,0,7.564-6.86l2.1-3.473.667,4a12.465,12.465,0,0,0,1.286,3.5c1.943,3.452,5.291,5.2,9.954,5.2a22.162,22.162,0,0,0,5.082-.588,7.912,7.912,0,0,0,2.418-.9V-34.92a30.477,30.477,0,0,0-1.7-10.692,17.9,17.9,0,0,0-5.129-7.462,23.18,23.18,0,0,0-8.984-4.567A50.324,50.324,0,0,0,374.4-59.22a58.9,58.9,0,0,0-15.583,1.729c-3.863,1.09-6.759,2.717-8.607,4.837l-.042.046a9.876,9.876,0,0,0-2.709,7.128,5.831,5.831,0,0,0,3.438,5.622,16.3,16.3,0,0,0,6.944,1.384,18.29,18.29,0,0,0,2.278-.13,11.922,11.922,0,0,1,3.951-4.833A15.369,15.369,0,0,1,373.08-45.9a11.492,11.492,0,0,1,7.172,2.053,9.041,9.041,0,0,1,3.31,6.286,11.842,11.842,0,0,1,.259,2.281v1.5ZM38.52,2.1H35.04c-3.724,0-6.609-1.123-8.577-3.339C24.55-3.394,23.58-6.53,23.58-10.56v-44.7H12.24c-3.983,0-7.095-1.031-9.249-3.064C.807-60.384-.3-63.371-.3-67.2v-.48c0-7.39,4.453-11.46,12.54-11.46H61.68c4.077,0,7.23.971,9.37,2.887,2.183,1.954,3.29,4.838,3.29,8.573v.48c0,3.848-1.1,6.835-3.261,8.876s-5.317,3.064-9.4,3.064H50.7v44.7c0,4.025-1.076,7.177-3.2,9.368S42.366,2.1,38.52,2.1ZM12.24-76.14c-3.217,0-5.646.714-7.22,2.123-1.54,1.378-2.32,3.51-2.32,6.337v.48c0,2.971.79,5.223,2.349,6.694,1.58,1.49,4,2.246,7.191,2.246H26.58v47.7c0,3.274.715,5.74,2.127,7.329C30.08-1.684,32.211-.9,35.04-.9h3.48c6.091,0,9.18-3.25,9.18-9.66v-47.7H61.68c3.291,0,5.761-.756,7.341-2.246,1.539-1.452,2.319-3.7,2.319-6.694v-.48c0-2.885-.749-4.958-2.29-6.337C67.476-75.426,65-76.14,61.68-76.14Zm359.4,65.16a9.138,9.138,0,0,1-5.9-1.873A6.738,6.738,0,0,1,363.3-18.24a6.964,6.964,0,0,1,1.24-4.1,8.455,8.455,0,0,1,3.385-2.7c2.562-1.21,6.2-1.831,11.117-1.9l4.778-.177v5.582a10.44,10.44,0,0,1-3.614,7.7A12.945,12.945,0,0,1,371.64-10.98ZM380.82-24l-1.72.063c-4.427.059-7.756.6-9.894,1.611-1.982.936-2.906,2.236-2.906,4.089a3.782,3.782,0,0,0,1.345,3.073,6.214,6.214,0,0,0,4,1.187,10.009,10.009,0,0,0,6.615-2.13,7.506,7.506,0,0,0,2.565-5.524Zm-78.9,9.3a12.83,12.83,0,0,1-5.3-1.1,11.952,11.952,0,0,1-4.158-3.109,13.942,13.942,0,0,1-2.644-4.71,18.466,18.466,0,0,1-.917-5.9c0-9,5.252-14.82,13.38-14.82a13.061,13.061,0,0,1,7.27,2.059,13.136,13.136,0,0,1,4.64,5.387l.15.31v9.944a11.581,11.581,0,0,1-3.553,8.748,11.433,11.433,0,0,1-3.972,2.384A14.506,14.506,0,0,1,301.92-14.7Zm.36-26.64a9.792,9.792,0,0,0-7.526,3.06c-1.867,2.07-2.854,5.1-2.854,8.76a15.478,15.478,0,0,0,.76,4.944,10.961,10.961,0,0,0,2.07,3.7A9.208,9.208,0,0,0,301.92-17.7a9.788,9.788,0,0,0,6.823-2.388,8.661,8.661,0,0,0,2.6-6.552v-9.245a10.079,10.079,0,0,0-3.43-3.884A10.115,10.115,0,0,0,302.28-41.34Zm-116.5,7.68H160.709l.158-1.644a13.876,13.876,0,0,1,4.019-8.673,12.194,12.194,0,0,1,3.932-2.564,12.793,12.793,0,0,1,4.823-.92c7.148,0,11.655,4.569,12.058,12.221Zm-21.657-3h18.421a9.579,9.579,0,0,0-2.449-5.418,8.642,8.642,0,0,0-6.456-2.382,9.373,9.373,0,0,0-6.666,2.637A10.526,10.526,0,0,0,164.124-36.66Z" transform="translate(0.3 85.98)" fill="#ef658a"/></svg>