<svg xmlns="http://www.w3.org/2000/svg" width="662.083" height="110.04" viewBox="0 0 662.083 110.04"><path d="M624.48,24.06A18.567,18.567,0,0,1,616,21.81a13.64,13.64,0,0,1-4.964-4.014,2.237,2.237,0,0,1-.263-2.25l8.959-18.913a10.15,10.15,0,0,1-2.365-1.21,7.736,7.736,0,0,1-2.787-3.484L594.887-53.083a2.3,2.3,0,0,1,.383-2.181,15.349,15.349,0,0,1,5.2-4.133,19.748,19.748,0,0,1,8.746-2.463h.026a12.26,12.26,0,0,1,7.715,2.536c2.511,1.951,4.393,5,5.595,9.07l7.4,21.7,6.9-21.689c1.2-4.028,3.086-7.068,5.593-9.033a12.2,12.2,0,0,1,7.721-2.585,18.156,18.156,0,0,1,8.383,2.327,14.8,14.8,0,0,1,5.114,4.158,2.4,2.4,0,0,1,.37,2.308L638.119,12.782C635.2,20.371,630.737,24.06,624.48,24.06Zm-10.785-7.68a11.526,11.526,0,0,0,3.384,2.605,15.694,15.694,0,0,0,7.4,2.075,9.293,9.293,0,0,0,5.921-1.92c1.946-1.509,3.6-4.011,4.919-7.438l0-.011,25.772-65.5a11.712,11.712,0,0,0-3.55-2.842,15.673,15.673,0,0,0-7.386-2.205,9.27,9.27,0,0,0-5.869,1.945c-2.011,1.577-3.55,4.115-4.573,7.544l-.008.025-9.66,30.379-10.369-30.41c-1.02-3.467-2.556-6.017-4.566-7.579a9.327,9.327,0,0,0-5.862-1.9,16.915,16.915,0,0,0-7.743,2.314,13.007,13.007,0,0,0-3.639,2.8L617.353-9.2c.7,1.744,2.27,2.86,4.806,3.411l1.845.4ZM482.16,3.18A28.054,28.054,0,0,1,470.487.751a25.944,25.944,0,0,1-9.042-6.826,30.852,30.852,0,0,1-5.768-10.4A41.64,41.64,0,0,1,453.66-29.64c0-9.7,2.686-17.893,7.768-23.684a25.26,25.26,0,0,1,9.087-6.6A29.637,29.637,0,0,1,482.28-62.22,24.6,24.6,0,0,1,493-59.833,20.962,20.962,0,0,1,497.94-56.5V-81.84a2.6,2.6,0,0,1,1.444-2.045,11.5,11.5,0,0,1,2.259-1.01,21.287,21.287,0,0,1,6.677-1.085,14.862,14.862,0,0,1,10.6,3.917c3.359,3.248,5.062,8.329,5.062,15.1v56.4c0,4.339-1.111,7.622-3.3,9.759-1.974,1.925-4.8,2.9-8.4,2.9H510A13.31,13.31,0,0,1,503.068.509a9.322,9.322,0,0,1-4.145-5.562A20.414,20.414,0,0,1,482.16,3.18Zm.12-62.4c-7.647,0-14.077,2.723-18.6,7.874C459.088-46.11,456.66-38.6,456.66-29.64a38.653,38.653,0,0,0,1.864,12.216,27.873,27.873,0,0,0,5.2,9.4,22.966,22.966,0,0,0,8,6.044A25.076,25.076,0,0,0,482.16.18a19.18,19.18,0,0,0,5.278-.72,17.177,17.177,0,0,0,4.52-2.029,17.488,17.488,0,0,0,6.366-7.312l2.311-4.888.538,5.38a28.694,28.694,0,0,0,.563,3.265A6.43,6.43,0,0,0,504.6-2.069,10.468,10.468,0,0,0,510-.9h2.28c2.788,0,4.908-.689,6.3-2.049,1.591-1.551,2.4-4.112,2.4-7.611v-56.4c0-5.93-1.4-10.286-4.148-12.947a10.417,10.417,0,0,0-3.99-2.387,14.294,14.294,0,0,0-4.522-.686,16.01,16.01,0,0,0-7.38,1.655v33.483l-2.725-3.852a17.179,17.179,0,0,0-6.527-5.443A21.584,21.584,0,0,0,482.28-59.22ZM362.04,3.18c-21.28,0-34.5-12.346-34.5-32.22A35.489,35.489,0,0,1,330-42.24a31.327,31.327,0,0,1,6.874-10.536,31.111,31.111,0,0,1,10.491-6.949A35.128,35.128,0,0,1,360.6-62.22,35.945,35.945,0,0,1,373.584-59.9,30.058,30.058,0,0,1,383.8-53.41a29.011,29.011,0,0,1,6.656,9.892A32.709,32.709,0,0,1,392.82-31.08v1.132a8.386,8.386,0,0,1-1.332,4.91,5.6,5.6,0,0,1-4.847,2.058H350.715a9.993,9.993,0,0,0,4.2,5.474,14.685,14.685,0,0,0,7.963,2.086,17.277,17.277,0,0,0,8.218-1.848,10.834,10.834,0,0,0,4.6-4.529,1.8,1.8,0,0,1,1.768-.87,15.683,15.683,0,0,1,6.709,1.731,9.385,9.385,0,0,1,5.281,8.7,11.162,11.162,0,0,1-2,6.362A16.548,16.548,0,0,1,382-.984l-.015.009C377.122,1.782,370.413,3.18,362.04,3.18Zm-1.44-62.4a32.146,32.146,0,0,0-12.114,2.275A28.128,28.128,0,0,0,339-50.664a28.341,28.341,0,0,0-6.217,9.534,32.5,32.5,0,0,0-2.243,12.09,33.188,33.188,0,0,0,2.2,12.344,24.81,24.81,0,0,0,6.216,9.115C344.449-2.5,352.432.18,362.04.18c7.842,0,14.049-1.265,18.45-3.759a13.591,13.591,0,0,0,4.489-3.983,8.214,8.214,0,0,0,1.481-4.678,6.6,6.6,0,0,0-1.091-3.817,7.19,7.19,0,0,0-2.6-2.231,12.8,12.8,0,0,0-4.835-1.361,13.993,13.993,0,0,1-5.422,5.027,20.226,20.226,0,0,1-9.632,2.2,17.658,17.658,0,0,1-9.587-2.564,13.106,13.106,0,0,1-5.5-7.273,8.673,8.673,0,0,1-.548-1.929l-.359-1.794h39.75c1.62,0,2.17-.486,2.443-.852a5.934,5.934,0,0,0,.737-3.194V-31.08a29.725,29.725,0,0,0-2.14-11.3,26.03,26.03,0,0,0-5.97-8.876,27.076,27.076,0,0,0-9.2-5.843A32.96,32.96,0,0,0,360.6-59.22ZM208.2,3.18A28.054,28.054,0,0,1,196.527.751a25.944,25.944,0,0,1-9.042-6.826,30.852,30.852,0,0,1-5.768-10.4A41.64,41.64,0,0,1,179.7-29.64c0-9.7,2.686-17.893,7.768-23.684a25.26,25.26,0,0,1,9.087-6.6A29.637,29.637,0,0,1,208.32-62.22a24.6,24.6,0,0,1,10.722,2.386A20.961,20.961,0,0,1,223.98-56.5V-81.84a2.6,2.6,0,0,1,1.444-2.045,11.5,11.5,0,0,1,2.259-1.01,21.287,21.287,0,0,1,6.677-1.085,14.862,14.862,0,0,1,10.6,3.917c3.359,3.248,5.062,8.329,5.062,15.1v56.4c0,4.339-1.111,7.622-3.3,9.759-1.974,1.925-4.8,2.9-8.4,2.9h-2.28A13.31,13.31,0,0,1,229.108.509a9.322,9.322,0,0,1-4.145-5.562A20.414,20.414,0,0,1,208.2,3.18Zm.12-62.4c-7.646,0-14.077,2.723-18.6,7.874C185.128-46.11,182.7-38.6,182.7-29.64a38.653,38.653,0,0,0,1.864,12.216,27.873,27.873,0,0,0,5.2,9.4,22.966,22.966,0,0,0,8,6.044A25.076,25.076,0,0,0,208.2.18a19.18,19.18,0,0,0,5.278-.72A17.177,17.177,0,0,0,218-2.569a17.488,17.488,0,0,0,6.366-7.312l2.311-4.888.538,5.38a28.7,28.7,0,0,0,.563,3.265,6.43,6.43,0,0,0,2.866,4.055A10.468,10.468,0,0,0,236.04-.9h2.28c2.788,0,4.908-.689,6.3-2.049,1.591-1.551,2.4-4.112,2.4-7.611v-56.4c0-5.93-1.4-10.286-4.148-12.947a10.416,10.416,0,0,0-3.99-2.387,14.3,14.3,0,0,0-4.523-.686,16.011,16.011,0,0,0-7.38,1.655v33.483l-2.725-3.852a17.179,17.179,0,0,0-6.527-5.443A21.584,21.584,0,0,0,208.32-59.22ZM146.88,3.18c-21.28,0-34.5-12.346-34.5-32.22a35.489,35.489,0,0,1,2.456-13.2,31.327,31.327,0,0,1,6.874-10.536A31.111,31.111,0,0,1,132.2-59.725,35.128,35.128,0,0,1,145.44-62.22,35.945,35.945,0,0,1,158.424-59.9a30.058,30.058,0,0,1,10.217,6.491,29.011,29.011,0,0,1,6.656,9.892A32.709,32.709,0,0,1,177.66-31.08v1.132a8.386,8.386,0,0,1-1.332,4.91,5.6,5.6,0,0,1-4.847,2.058H135.555a9.993,9.993,0,0,0,4.2,5.474,14.685,14.685,0,0,0,7.963,2.086,17.277,17.277,0,0,0,8.218-1.848,10.834,10.834,0,0,0,4.6-4.529,1.8,1.8,0,0,1,1.768-.87,15.683,15.683,0,0,1,6.709,1.731,9.385,9.385,0,0,1,5.281,8.7,11.162,11.162,0,0,1-2,6.362,16.548,16.548,0,0,1-5.465,4.893l-.015.009C161.962,1.782,155.253,3.18,146.88,3.18Zm-1.44-62.4a32.146,32.146,0,0,0-12.114,2.275,28.128,28.128,0,0,0-9.486,6.281,28.34,28.34,0,0,0-6.217,9.534,32.5,32.5,0,0,0-2.243,12.09,33.187,33.187,0,0,0,2.2,12.344,24.809,24.809,0,0,0,6.215,9.115C129.289-2.5,137.272.18,146.88.18c7.842,0,14.049-1.265,18.45-3.759a13.591,13.591,0,0,0,4.489-3.983A8.214,8.214,0,0,0,171.3-12.24a6.6,6.6,0,0,0-1.09-3.817,7.19,7.19,0,0,0-2.6-2.231,12.8,12.8,0,0,0-4.835-1.361,13.993,13.993,0,0,1-5.422,5.027,20.227,20.227,0,0,1-9.632,2.2,17.658,17.658,0,0,1-9.587-2.564,13.106,13.106,0,0,1-5.5-7.273,8.672,8.672,0,0,1-.548-1.929l-.359-1.794h39.75c1.62,0,2.17-.486,2.443-.852a5.935,5.935,0,0,0,.737-3.194V-31.08a29.725,29.725,0,0,0-2.14-11.3,26.03,26.03,0,0,0-5.97-8.876,27.076,27.076,0,0,0-9.2-5.843A32.96,32.96,0,0,0,145.44-59.22ZM422.16,2.82c-9.452,0-16.647-1.4-21.384-4.157-4.4-2.465-6.636-6.133-6.636-10.9a11.157,11.157,0,0,1,2.69-6.994,12.173,12.173,0,0,1,2.07-2.011,3.533,3.533,0,0,1,2.132-.936,1.669,1.669,0,0,1,1.149.442,25.052,25.052,0,0,0,7.68,4.576,29.446,29.446,0,0,0,10.5,1.984,10.315,10.315,0,0,0,4.664-.792c.913-.473,1.036-.988,1.036-1.428,0-.34,0-.909-1.493-1.588a36.675,36.675,0,0,0-6.092-1.7l-.715-.163-.463-.1c-3.866-.807-9.16-1.913-13.58-4.71-5.4-3.417-8.137-8.551-8.137-15.259a18.8,18.8,0,0,1,7.475-15.533,25.8,25.8,0,0,1,8.758-4.2A43.066,43.066,0,0,1,423.36-62.1a49.794,49.794,0,0,1,15.956,2.167c4.25,1.47,7.265,3.687,8.964,6.589a11.355,11.355,0,0,1,1.78,6.3,11.5,11.5,0,0,1-3.111,7.442,14.553,14.553,0,0,1-2.282,2.108,3.682,3.682,0,0,1-2.153.973,1.591,1.591,0,0,1-1.124-.452,26.932,26.932,0,0,0-7.588-5.057A21.858,21.858,0,0,0,425.04-44.1a8.949,8.949,0,0,0-4.4.838,1.735,1.735,0,0,0-1.057,1.622c0,.242,0,.646,1.228,1.191a33.665,33.665,0,0,0,5.422,1.483c.763.171,1.552.348,2.39.545l.741.164c3.944.868,9.345,2.057,13.84,4.846a16.607,16.607,0,0,1,8.3,14.932,20.472,20.472,0,0,1-1.936,9.014A18.093,18.093,0,0,1,443.8-2.685C438.757.968,431.476,2.82,422.16,2.82ZM400.828-18.939a9.289,9.289,0,0,0-1.91,1.9,8.088,8.088,0,0,0-1.778,4.8,8.912,8.912,0,0,0,1.2,4.7,10.111,10.111,0,0,0,3.914,3.586l.024.014a25.649,25.649,0,0,0,7.918,2.749A62.989,62.989,0,0,0,422.16-.18a47.793,47.793,0,0,0,11.675-1.293,24,24,0,0,0,8.2-3.642c4.286-3.105,6.46-7.6,6.46-13.365a13.607,13.607,0,0,0-6.881-12.382c-4.059-2.519-9.17-3.644-12.9-4.465l-.762-.168-.018,0c-.824-.194-1.607-.369-2.363-.539a34.429,34.429,0,0,1-5.982-1.668,5.808,5.808,0,0,1-2.1-1.449,3.692,3.692,0,0,1-.916-2.484,4.754,4.754,0,0,1,2.573-4.228A11.975,11.975,0,0,1,425.04-47.1a24.858,24.858,0,0,1,9.989,2.336,30.5,30.5,0,0,1,7.72,4.961c1.355-.955,4.312-3.756,4.312-7.237a8.331,8.331,0,0,0-1.322-4.709l-.035-.057c-1.324-2.277-3.8-4.058-7.369-5.291a46.9,46.9,0,0,0-14.974-2c-7.776,0-14.168,1.74-18.485,5.033a15.639,15.639,0,0,0-4.683,5.661,17.093,17.093,0,0,0-1.612,7.486c0,5.691,2.205,9.853,6.742,12.724,3.961,2.506,8.948,3.548,12.589,4.308l.5.106.727.166a37.4,37.4,0,0,1,6.667,1.9,6.307,6.307,0,0,1,2.283,1.62,4.084,4.084,0,0,1,.968,2.7,4.514,4.514,0,0,1-2.655,4.092,13.377,13.377,0,0,1-6.046,1.128,32.475,32.475,0,0,1-11.581-2.186A28.381,28.381,0,0,1,400.828-18.939ZM549.96,2.7c-6.245,0-11.544-1.735-15.323-5.017a16.5,16.5,0,0,1-4.344-5.907,18.937,18.937,0,0,1-1.512-7.616,16.625,16.625,0,0,1,2.631-9.258,19.85,19.85,0,0,1,7.544-6.559c6.321-3.338,15.552-5.062,27.438-5.124h.864c-.016-.085-.032-.167-.048-.246l-.011-.054-.007-.054c-.492-3.934-2.879-5.766-7.512-5.766a12.475,12.475,0,0,0-7.281,1.917,9.069,9.069,0,0,0-3.2,4.2c-.355.938-1.368,1.063-2.185,1.163a21.84,21.84,0,0,1-2.573.144,18.9,18.9,0,0,1-8.3-1.71,8.811,8.811,0,0,1-5.078-8.3,12.912,12.912,0,0,1,3.51-9.169c2.238-2.555,5.613-4.483,10.033-5.73A61.811,61.811,0,0,1,561-62.22a53.278,53.278,0,0,1,14.216,1.691,26.135,26.135,0,0,1,10.134,5.183,21.11,21.11,0,0,1,5.978,8.678A33.434,33.434,0,0,1,593.22-34.92V-1.56A2.646,2.646,0,0,1,591.731.683a9.921,9.921,0,0,1-2.426,1.012,24.544,24.544,0,0,1-6.585.885c-5.762,0-10.115-2.34-12.59-6.768l-.032-.061c-.214-.428-.427-.869-.626-1.325A21.912,21.912,0,0,1,562.5-.114,28.056,28.056,0,0,1,549.96,2.7Zm16.448-36.48c-11.4.059-20.163,1.666-26.052,4.776a16.908,16.908,0,0,0-6.433,5.546,13.678,13.678,0,0,0-2.143,7.617A14.4,14.4,0,0,0,536.6-4.583C539.83-1.781,544.448-.3,549.96-.3a25.047,25.047,0,0,0,11.192-2.5,18.4,18.4,0,0,0,7.564-6.86l2.1-3.473.667,4a12.47,12.47,0,0,0,1.286,3.5c1.943,3.452,5.292,5.2,9.954,5.2a22.162,22.162,0,0,0,5.082-.588,7.915,7.915,0,0,0,2.418-.9V-34.92a30.476,30.476,0,0,0-1.7-10.692,17.9,17.9,0,0,0-5.129-7.462,23.18,23.18,0,0,0-8.984-4.567A50.327,50.327,0,0,0,561-59.22a58.9,58.9,0,0,0-15.583,1.729c-3.863,1.09-6.759,2.717-8.607,4.837l-.042.046a9.876,9.876,0,0,0-2.709,7.128,5.831,5.831,0,0,0,3.438,5.622,16.3,16.3,0,0,0,6.944,1.384,18.3,18.3,0,0,0,2.278-.13,11.921,11.921,0,0,1,3.951-4.833A15.369,15.369,0,0,1,559.68-45.9a11.492,11.492,0,0,1,7.172,2.053,9.042,9.042,0,0,1,3.31,6.286,11.837,11.837,0,0,1,.259,2.281v1.5ZM82.08,2.22c-4.189,0-7.3-.692-9.784-2.177-2.82-1.685-4.723-4.35-5.817-8.147l0-.01L58.93-34.979,51.485-8.119a14.989,14.989,0,0,1-2.263,4.862A11.874,11.874,0,0,1,45.626,0c-2.534,1.492-5.8,2.218-9.986,2.218-4.278,0-7.381-.675-9.764-2.123-2.664-1.619-4.495-4.26-5.595-8.072h0L2.147-69.465l-.011-.05c-.192-.863.278-2.008,1.4-3.4a17.021,17.021,0,0,1,5.422-4.325A20.745,20.745,0,0,1,18.6-79.5a13.744,13.744,0,0,1,8.506,2.919c3.08,2.438,5.115,6.187,6.048,11.144L38.291-38.3l6.451-24.1a11.688,11.688,0,0,1,5.314-7.547A17.419,17.419,0,0,1,59.28-72.3a16.635,16.635,0,0,1,9.146,2.554,12.041,12.041,0,0,1,5.269,7.337l6.337,23.93,5.133-27.31c.841-4.683,2.733-8.263,5.623-10.641A13.855,13.855,0,0,1,99.72-79.5a18.852,18.852,0,0,1,9.138,2.26,15.95,15.95,0,0,1,5.148,4.347c1.052,1.413,1.454,2.58,1.2,3.469L97.682-7.989a15.321,15.321,0,0,1-2.2,4.721,11.751,11.751,0,0,1-3.475,3.23C89.508,1.481,86.26,2.22,82.08,2.22ZM69.363-8.931C71.032-3.141,74.717-.78,82.08-.78c3.615,0,6.353-.6,8.371-1.822A10.048,10.048,0,0,0,94.8-8.812l17.452-61.2a9.723,9.723,0,0,0-3.2-3.561A15.57,15.57,0,0,0,99.72-76.5a10.973,10.973,0,0,0-7.027,2.388c-2.326,1.913-3.865,4.893-4.577,8.857l0,.012L81.754-31.4,78.83-31.3l-8.049-30.4a9.093,9.093,0,0,0-4-5.543,13.653,13.653,0,0,0-7.5-2.066,14.452,14.452,0,0,0-7.637,1.9,8.64,8.64,0,0,0-3.978,5.679l-.016.066-8.16,30.48-2.923-.109-6.36-33.6c-.8-4.227-2.465-7.372-4.962-9.348A10.784,10.784,0,0,0,18.6-76.5a17.259,17.259,0,0,0-10.05,3A10.767,10.767,0,0,0,5.137-69.93L23.161-8.815c.894,3.1,2.252,5.12,4.273,6.349C29.327-1.316,31.935-.78,35.64-.78c3.636,0,6.4-.59,8.464-1.8a9.964,9.964,0,0,0,4.49-6.336L58.91-46.141ZM311.4,2.1H309c-3.739,0-6.532-.912-8.539-2.789a9.859,9.859,0,0,1-2.547-4.042,17.932,17.932,0,0,1-.853-5.829v-22.8a8.063,8.063,0,0,0-1.617-5.322A5.565,5.565,0,0,0,291-40.5a9.588,9.588,0,0,0-4.578,1.122,8.062,8.062,0,0,0-2.8,2.5V-10.56c0,4.376-1.129,7.677-3.357,9.813C278.292,1.142,275.485,2.1,271.92,2.1h-2.4c-3.785,0-6.595-.914-8.589-2.793a9.8,9.8,0,0,1-2.518-4.046,18.23,18.23,0,0,1-.833-5.821V-57.48A2.6,2.6,0,0,1,259-59.518a11.1,11.1,0,0,1,2.238-1.016,21.212,21.212,0,0,1,6.726-1.086,15.088,15.088,0,0,1,9,2.72,13.874,13.874,0,0,1,4.59,5.955,25.178,25.178,0,0,1,6.549-5.918,23.48,23.48,0,0,1,12.5-3.357,24.717,24.717,0,0,1,10.388,2.072,18.692,18.692,0,0,1,7.06,5.622c3.305,4.288,5.052,10.237,5.052,17.206v26.76c0,4.339-1.111,7.622-3.3,9.759C317.823,1.124,315,2.1,311.4,2.1ZM291-43.5a8.542,8.542,0,0,1,6.717,2.862,10.972,10.972,0,0,1,2.343,7.278v22.8a14.987,14.987,0,0,0,.688,4.847,6.808,6.808,0,0,0,1.761,2.832C303.935-1.548,306.058-.9,309-.9h2.4c2.788,0,4.908-.689,6.3-2.049,1.591-1.551,2.4-4.112,2.4-7.611V-37.32c0-6.3-1.531-11.616-4.428-15.374-3.338-4.33-8.409-6.526-15.072-6.526a22.572,22.572,0,0,0-6.014.776,19.1,19.1,0,0,0-4.915,2.136,23.927,23.927,0,0,0-7.379,7.454l-1.9,2.876-.81-3.35a12,12,0,0,0-4.393-7.152,11.96,11.96,0,0,0-7.229-2.14,18.74,18.74,0,0,0-5.134.727,9.578,9.578,0,0,0-2.246.921V-10.56a15.285,15.285,0,0,0,.674,4.856,6.752,6.752,0,0,0,1.735,2.828C264.4-1.546,266.536-.9,269.52-.9h2.4c2.765,0,4.874-.677,6.267-2.013,1.615-1.548,2.433-4.121,2.433-7.647V-37.741l.219-.359a11,11,0,0,1,4.149-3.912A12.594,12.594,0,0,1,291-43.5ZM558.24-10.98a9.137,9.137,0,0,1-5.9-1.873A6.738,6.738,0,0,1,549.9-18.24a6.964,6.964,0,0,1,1.24-4.1,8.455,8.455,0,0,1,3.385-2.7c2.562-1.21,6.2-1.831,11.115-1.9l4.781-.177v5.582a10.439,10.439,0,0,1-3.614,7.7A12.945,12.945,0,0,1,558.24-10.98ZM567.42-24l-1.72.063c-4.427.059-7.756.6-9.894,1.611-1.982.937-2.906,2.236-2.906,4.089a3.782,3.782,0,0,0,1.345,3.073,6.214,6.214,0,0,0,4,1.187,10.009,10.009,0,0,0,6.615-2.13,7.506,7.506,0,0,0,2.565-5.524Zm-78.9,9.3a12.83,12.83,0,0,1-5.3-1.1,11.952,11.952,0,0,1-4.158-3.109,13.942,13.942,0,0,1-2.644-4.71,18.465,18.465,0,0,1-.917-5.9c0-9,5.252-14.82,13.38-14.82a13.061,13.061,0,0,1,7.27,2.059,13.137,13.137,0,0,1,4.64,5.387l.15.31v9.944a11.581,11.581,0,0,1-3.553,8.748,11.433,11.433,0,0,1-3.972,2.384A14.506,14.506,0,0,1,488.52-14.7Zm.36-26.64a9.792,9.792,0,0,0-7.526,3.06c-1.867,2.07-2.854,5.1-2.854,8.76a15.478,15.478,0,0,0,.76,4.944,10.961,10.961,0,0,0,2.07,3.7A9.208,9.208,0,0,0,488.52-17.7a9.788,9.788,0,0,0,6.823-2.388,8.662,8.662,0,0,0,2.6-6.552v-9.245a10.078,10.078,0,0,0-3.43-3.884A10.115,10.115,0,0,0,488.88-41.34ZM214.56-14.7a12.83,12.83,0,0,1-5.3-1.1,11.952,11.952,0,0,1-4.158-3.109,13.942,13.942,0,0,1-2.644-4.71,18.465,18.465,0,0,1-.917-5.9c0-9,5.252-14.82,13.38-14.82a13.061,13.061,0,0,1,7.27,2.059,13.137,13.137,0,0,1,4.64,5.387l.15.31v9.944a11.581,11.581,0,0,1-3.553,8.748,11.433,11.433,0,0,1-3.972,2.384A14.506,14.506,0,0,1,214.56-14.7Zm.36-26.64a9.792,9.792,0,0,0-7.526,3.06c-1.867,2.07-2.854,5.1-2.854,8.76a15.478,15.478,0,0,0,.76,4.944,10.961,10.961,0,0,0,2.07,3.7A9.208,9.208,0,0,0,214.56-17.7a9.788,9.788,0,0,0,6.823-2.388,8.662,8.662,0,0,0,2.6-6.552v-9.245a10.078,10.078,0,0,0-3.43-3.884A10.115,10.115,0,0,0,214.92-41.34Zm157.461,7.68H347.309l.158-1.644a13.875,13.875,0,0,1,4.019-8.673,12.2,12.2,0,0,1,3.932-2.564,12.792,12.792,0,0,1,4.823-.919c7.147,0,11.655,4.569,12.058,12.221Zm-21.657-3h18.421a9.579,9.579,0,0,0-2.449-5.417,8.642,8.642,0,0,0-6.456-2.382,9.373,9.373,0,0,0-6.666,2.637A10.526,10.526,0,0,0,350.724-36.66Zm-193.5,3H132.149l.158-1.644a13.875,13.875,0,0,1,4.019-8.673,12.2,12.2,0,0,1,3.932-2.564,12.792,12.792,0,0,1,4.823-.919c7.148,0,11.655,4.569,12.058,12.221Zm-21.657-3h18.421a9.579,9.579,0,0,0-2.449-5.417,8.642,8.642,0,0,0-6.456-2.382,9.373,9.373,0,0,0-6.666,2.637A10.526,10.526,0,0,0,135.564-36.66Z" transform="translate(-2.094 85.98)" fill="#ef658a"/></svg>