<?xml version="1.0" encoding="utf-8"?>
<!-- Generator: Adobe Illustrator 26.0.3, SVG Export Plug-In . SVG Version: 6.00 Build 0)  -->
<svg version="1.1" id="Layer_1" xmlns="http://www.w3.org/2000/svg" xmlns:xlink="http://www.w3.org/1999/xlink" x="0px" y="0px"
	 viewBox="0 0 558.3 422.2" style="enable-background:new 0 0 558.3 422.2;" xml:space="preserve">
<style type="text/css">
	.st0{fill:#442308;}
	.st1{fill:#EF658A;}
	.st2{fill:#15AAAA;}
</style>
<g>
	<g>
		<path class="st0" d="M169.8,374.6c2.7,0.8,4.4,2.1,5.3,3.4c0.9,1.3,1.1,2.6,0.8,3.6c-0.7,2.5-4.3,2.1-4.3,1.9
			c-0.3-1.6-1.4-2.8-3.1-3.3c-2.4-0.7-4.8,0.5-5.6,3.3c-0.8,2.8,0.5,5.1,2.9,5.8c1.8,0.5,3.4,0.1,4.5-1.2c0.1-0.2,3.4,1.4,2.6,3.9
			c-0.3,1-1.2,2-2.6,2.6c-1.5,0.6-3.7,0.8-6.4,0c-6-1.8-8.8-7.1-7.1-13C158.6,375.9,163.9,372.9,169.8,374.6z"/>
		<path class="st0" d="M185.7,382.3c0.5-1.9,1.7-2.6,3.3-2.2l0.8,0.2c1.7,0.4,2.4,1.6,1.9,3.4l-2,8.3c-0.6,2.4,0.1,3.8,2,4.3
			c1.9,0.5,3.1-0.5,3.7-2.9l2-8.3c0.5-1.9,1.7-2.6,3.3-2.2l0.8,0.2c1.7,0.4,2.4,1.5,1.9,3.4l-2,8.3c-1.4,5.9-5.2,8.2-11,6.7
			c-5.9-1.4-8.2-5.1-6.7-11L185.7,382.3z"/>
		<path class="st0" d="M210.8,403.2l2.6-13.6c0.4-2.2,1.8-3.2,3.8-2.8l5.2,1c5.6,1.1,8.2,4.1,7.3,8.8c-0.9,4.7-4.3,6.5-9.8,5.4
			l-2.3-0.5l-0.5,2.8c-0.3,1.8-1.5,2.7-3.2,2.3l-0.9-0.2C211.2,406.2,210.5,405,210.8,403.2z M223.8,395.5c0.3-1.7-0.5-2.8-2.4-3.1
			l-2.1-0.4l-1,5.1l2.2,0.4C222.3,397.8,223.5,397.1,223.8,395.5z"/>
		<path class="st0" d="M250.4,392c2.8,0.4,4.6,1.4,5.8,2.6c1.1,1.2,1.4,2.4,1.3,3.4c-0.4,2.6-3.9,2.7-4,2.5
			c-0.5-1.5-1.8-2.5-3.5-2.8c-2.5-0.4-4.7,1.2-5.1,4.1c-0.4,2.9,1.2,5,3.7,5.4c1.9,0.3,3.4-0.4,4.3-1.8c0.1-0.2,3.5,0.9,3.1,3.5
			c-0.1,1-0.9,2.1-2.2,3c-1.4,0.8-3.5,1.3-6.4,0.9c-6.2-0.9-9.7-5.8-8.8-11.8C239.4,394.8,244.2,391.1,250.4,392z"/>
		<path class="st0" d="M264.4,412.9l8.1-16.1c0.4-1,1.3-1.6,4.1-1.3c2.8,0.3,3.4,1.1,3.7,2.1l5,17.4c0.2,0.6-1.6,1.8-3.5,1.6
			c-1.3-0.1-2.6-1-3.3-3.3l-0.4-1.5l-6.4-0.6l-0.7,1.5c-1,2.1-2.3,2.7-3.6,2.5C265.7,415,264.2,413.5,264.4,412.9z M277.5,407.2
			l-1.5-6l-2.7,5.6L277.5,407.2z"/>
		<path class="st0" d="M296.1,400.1c0.1-1.9,1.1-2.8,2.8-2.7l0.9,0c1.8,0.1,2.7,1.1,2.6,3l-0.3,5.8l5.1-6.3c1.1-1.5,2.4-2,3.5-1.9
			c2.1,0.1,3.6,2.2,3.4,2.5l-6.2,7.3l5.6,8.4c0.2,0.4-1.6,2.2-3.9,2.1c-1.2-0.1-2.3-0.7-3.3-2.3l-4.5-6.8l-0.3,5.8
			c-0.1,1.9-1.1,2.8-2.9,2.7l-0.9,0c-1.7-0.1-2.6-1.1-2.5-3L296.1,400.1z"/>
		<path class="st0" d="M323.7,415.3l0.2-13.2c0-2.3,1.2-3.5,3.2-3.4l10.6,0.2c2,0,2.8,0.8,2.8,2.5l0,0.2c0,1.7-0.9,2.4-2.9,2.3
			l-7.6-0.1l0,2.6l5,0.1c2,0,2.9,0.7,2.8,2.2l0,0.1c0,1.6-0.9,2.3-2.9,2.3l-5-0.1l0,3l7.7,0.1c2,0,2.9,0.7,2.8,2.3l0,0.2
			c0,1.7-0.9,2.5-2.9,2.5l-10.7-0.2C324.8,418.8,323.7,417.6,323.7,415.3z"/>
		<path class="st0" d="M350.4,415.3c0-1.5,1.7-3.2,1.9-3c1.3,1.1,3.9,2.2,6,2.1c1.9-0.1,2.7-0.6,2.7-1.6c0-1.2-1.6-1.4-3.6-1.7
			c-3.4-0.6-6.8-1.8-6.9-5.9c-0.1-4.1,2.8-6.7,8.3-6.8c2.8-0.1,4.7,0.4,6,1.1c1.1,0.6,1.7,1.5,1.7,2.5c0.1,1.7-2,3.3-2.1,3.2
			c-1.4-1.2-3.4-2.1-5.3-2c-1.8,0.1-2.6,0.6-2.6,1.6c0,1.1,1.6,1.2,3.7,1.6c4,0.7,7,2.2,7.1,5.9c0.1,4.4-2.8,6.8-8.8,7
			c-3.1,0.1-5.3-0.4-6.5-1.3C350.9,417.2,350.4,416.3,350.4,415.3z"/>
		<path class="st0" d="M390.4,411.6c-0.2-2.6,1.3-4.6,3.9-5.8c-1.3-0.9-2.1-2.3-2.3-3.8c-0.3-3.3,2.2-5.7,6.4-6.1
			c3.7-0.3,6.4,1.5,6.6,4.5c0.2,2.2-1.3,4-3.7,4.9l3.2,2.3c0.3-0.7,0.5-1.6,0.7-2.6c0.3-1.8,1.3-2.6,2.6-2.7
			c1.7-0.2,2.8,1.2,2.8,1.3c-0.4,2.4-1.3,4.6-2.5,6.5l4,2.8c0.1,0.1-0.7,2.6-3,2.8c-0.5,0-1.2,0-1.8-0.3c-0.7-0.3-1.5-0.8-2.3-1.6
			c-1.6,1.7-3.7,2.8-6.3,3C393.8,417.4,390.7,415.5,390.4,411.6z M401.7,411.4l-4.8-3.5c-1,0.6-1.6,1.4-1.5,2.6
			c0.1,1.6,1.5,2.5,3.4,2.4C399.9,412.8,400.9,412.2,401.7,411.4z M400.5,401.4c-0.1-1-0.8-1.7-1.8-1.6c-1.1,0.1-1.6,0.9-1.5,2
			c0.1,1,0.6,1.6,1.5,2.2C400.2,403.3,400.6,402.4,400.5,401.4z"/>
		<path class="st0" d="M432.4,395.5c-0.3-1.9,0.5-3.1,2.3-3.4l1.7-0.3c1.6-0.3,2.2,0.1,3,1.2l4.5,7.4l1.9-8.4c0.4-1.4,1-1.8,2.4-2.1
			l1.7-0.3c1.8-0.3,3,0.6,3.3,2.5l2.2,14.3c0.3,1.9-0.2,2.9-2,3.2l-0.9,0.1c-1.7,0.3-2.6-0.6-2.9-2.5l-0.4-2.7l-0.9-5.9l-1.1,6.2
			c-0.2,0.8-0.1,1.6-2.4,1.9c-2.3,0.4-2.3-0.4-2.8-1.1l-2.9-5.3l1.3,8.2c0.3,1.9-0.2,2.9-1.9,3.2l-1,0.2c-1.7,0.3-2.5-0.6-2.8-2.5
			L432.4,395.5z"/>
		<path class="st0" d="M464.3,397.6c-1.2-6,2.2-11.2,8.2-12.4c6-1.3,11.2,2.1,12.4,8.1c1.2,6-2.2,11.2-8.2,12.4
			C470.7,406.9,465.5,403.6,464.3,397.6z M478.9,394.6c-0.6-2.9-2.7-4.5-5.3-4c-2.6,0.5-3.9,2.7-3.3,5.7c0.6,2.9,2.7,4.5,5.3,3.9
			C478.2,399.7,479.5,397.5,478.9,394.6z"/>
		<path class="st0" d="M496.4,397.3l-3.3-12.7c-0.6-2.2,0.2-3.6,2.2-4.2l6-1.5c5.4-1.4,8.6,0.1,9.7,4.3c0.7,2.6-0.1,4.8-2.2,6.4
			l-0.6,0.3l5.9,4.3c0.2,0.2-0.3,2.3-2.9,3c-1.9,0.5-3-0.1-4.7-1.5l-4-3.1l-0.8,0.2l0.9,3.6c0.5,1.8-0.2,3-1.9,3.5l-0.8,0.2
			C498.3,400.6,497,399.5,496.4,397.3z M503,388.2c1.8-0.5,2.5-1.5,2.1-3c-0.4-1.5-1.5-2.1-3.3-1.6l-2.4,0.6l1.2,4.6L503,388.2z"/>
		<path class="st0" d="M523.8,390l-3.9-12.6c-0.7-2.2,0.1-3.7,2-4.3l10.1-3.1c1.9-0.6,3-0.1,3.4,1.5l0,0.1c0.5,1.6-0.2,2.5-2,3.1
			l-7.2,2.2l0.8,2.5l4.8-1.5c2-0.6,2.9-0.2,3.4,1.2l0,0.1c0.5,1.6-0.1,2.5-2.1,3.1l-4.8,1.5l0.9,2.8l7.3-2.3
			c1.9-0.6,2.9-0.3,3.4,1.3l0,0.1c0.5,1.6-0.1,2.7-2,3.3l-10.2,3.2C525.9,392.9,524.5,392.2,523.8,390z"/>
	</g>
	<g>
		<path class="st0" d="M204,307.2c1.8-8.7,3.7-17.3,5.5-26c0.5-3,2.4-4.3,5.1-4.3c3.6-0.1,7.2-0.1,10.8-0.3
			c7.4-0.2,11.4,2.3,11.4,7.5c0,4.3-2,7.7-7.6,9.5c4.2,1,6.3,3.5,6.3,7c0,6.4-4,11.4-15.4,11.7c-4,0.1-8,0.2-12,0.2
			C204.7,312.4,203.2,310.7,204,307.2z M219.9,306.3c5.2-0.1,7.3-2,7.3-6c0-2.4-1.9-3.9-5.8-3.8c-2.4,0.1-4.8,0.1-7.1,0.2
			c-0.7,3.2-1.4,6.5-2.1,9.7C214.8,306.4,217.3,306.4,219.9,306.3z M221.7,291.8c4.2-0.1,6.6-2.3,6.6-5.7c-0.1-2.4-1.8-3.6-5.4-3.5
			c-1.9,0.1-3.8,0.1-5.7,0.1c-0.7,3.1-1.3,6.1-2,9.2C217.4,291.9,219.6,291.8,221.7,291.8z"/>
		<path class="st0" d="M239.9,301.1c0-8.8,5.8-17.4,14.6-18c3.8-0.3,7.1,1.3,8.6,4.3c0.5-1.6,1.3-2.8,2.2-3.6c0.9-0.8,2-1.2,3.4-1.3
			c1.6-0.1,2.8,0.4,2.7,0.7c-1.4,6.6-2.7,13.1-4.1,19.7c-0.7,3-0.1,4.1,1.9,4.3c0.1,0-0.4,2.8-4.3,3.1c-2.5,0.2-4.1-0.6-4.8-2.2
			c-0.4-0.7-0.5-1.8-0.5-2.9c-2.1,3.7-5.5,6-9.6,6.3C244.1,311.9,239.9,308.1,239.9,301.1z M260.8,297.2c0.3-1.3,0.5-2.6,0.8-3.8
			c-0.9-2.7-2.8-4.5-6-4.2c-5,0.3-8.1,5.6-8.1,10.5c0,3.6,2.3,5.6,5.3,5.4C256.6,304.8,259.9,301.5,260.8,297.2z"/>
		<path class="st0" d="M298.8,286.9c-2.7,2.4-5.3,4.9-8,7.3c0.9,1.6,1.8,3.1,2.7,4.7c1.9,3.3,2.7,3.8,5.1,3.7c0.3,0,0.2,4.5-4.7,5
			c-3.1,0.3-4.3-0.9-6.8-5.4c-1.2-2.2-2.5-4.5-3.7-6.7c-0.6,3.1-1.3,6.2-1.9,9.2c-0.6,2.9-1.6,3.9-3.6,4.1c-0.3,0-0.6,0.1-0.9,0.1
			c-2.1,0.2-4-0.5-3.3-3.5c2.2-10.5,4.4-20.9,6.5-31.4c0.6-2.9,1.6-3.9,3.6-4.1c0.3,0,0.6-0.1,0.9-0.1c2.1-0.2,4,0.5,3.3,3.4
			c-1.3,6.3-2.6,12.5-3.9,18.8c4.2-4.2,8.4-8.5,12.7-12.8c0.1-0.1,4.2,0.1,4.2,3.4C301.1,284.2,300.3,285.5,298.8,286.9z"/>
		<path class="st0" d="M303.1,295.4c0-9.7,7.4-17.5,16.8-18.6c6.8-0.8,10.6,1.9,10.6,6.5c0,5.3-3.6,9.2-15.4,10.6
			c-1.6,0.2-3.3,0.3-5.3,0.4c0.1,0.4,0.2,0.8,0.3,1.1c0.2,3,2.4,4.8,6.1,4.4c3.5-0.4,6-2.1,7.8-4.7c0.1-0.2,3.3,0,3.3,2.6
			c0,1.2-0.5,2.1-1.5,3.3c-2,2.2-5.2,3.8-9.8,4.4C307.3,306.4,303.1,302,303.1,295.4z M314.4,289.4c7.2-0.9,9.4-2.8,9.4-5
			c0-1.5-1.4-2.7-4.3-2.3c-4,0.5-7.3,3.7-8.8,7.6C312.1,289.7,313.3,289.5,314.4,289.4z"/>
		<path class="st0" d="M344.3,297.9c-1.3-1.1-2-2.5-2-4c0-2.8,3.1-4.7,3.3-4.5c2,3.1,6.1,5.1,10.9,4.5c3.9-0.5,5.8-2.4,5.8-5
			c0-2.5-2.8-3.2-6.3-4.1c-4.3-1.1-8.9-2.8-8.9-8.8c0-6,4.5-11.9,13.9-13.1c5.5-0.7,9.3,0.3,11.4,2.2c1.2,1,1.8,2.3,1.8,3.7
			c0,3.1-3.3,5.1-3.6,4.8c-2-3-5.5-4.7-9.8-4.1c-3.5,0.5-5.6,2.5-5.7,4.8c0,2.7,2.9,3.4,6.7,4.4c4.6,1.2,9.3,2.8,9.3,8.5
			c0,6.5-4.7,12.1-14.6,13.4C350.8,301,346.6,299.9,344.3,297.9z"/>
		<path class="st0" d="M393.5,290.5c0-1.6,0.5-3.6,1.3-6.8c0.7-2.6,1.2-4.8,1.2-5.9c0-2.7-1.5-4.1-4.2-3.8c-2.6,0.3-4.3,1.8-6,4.6
			c-1,4.6-1.9,9.2-2.9,13.9c-0.6,2.9-1.6,4-3.6,4.3c-0.3,0-0.6,0.1-0.9,0.1c-2.1,0.3-4-0.4-3.3-3.3c2.2-10.6,4.4-21.1,6.5-31.7
			c0.6-2.9,1.6-3.9,3.6-4.2c0.3,0,0.6-0.1,0.9-0.1c2.1-0.3,4,0.4,3.3,3.3c-0.9,4.1-1.7,8.3-2.6,12.4c2-3.4,5.2-5.8,8.9-6.3
			c5.3-0.7,8.4,2.5,8.4,7.5c0,2-0.6,4.7-1.5,8.2c-0.8,2.7-1.3,5-1.3,6c0,1.5,0.8,2,2.2,2.1c0.2,0-0.5,3.2-4.7,3.8
			C395.2,295,393.5,293.4,393.5,290.5z"/>
		<path class="st0" d="M408.6,281.2c0-8.2,5.7-16.6,15.1-17.7c8-0.9,12.7,3.9,12.7,10.8c0,8.2-5.7,16.5-15.1,17.6
			C413.4,292.8,408.6,288.1,408.6,281.2z M429.7,275.3c0-3.8-2.6-6.3-6.1-5.9c-4.8,0.6-8.1,5.7-8.1,10.6c0,3.8,2.6,6.3,6.1,5.8
			C426.3,285.4,429.7,280.3,429.7,275.3z"/>
		<path class="st0" d="M437.7,296.3c2.4-11.4,4.7-22.8,7.1-34.2c0.1-0.2,1-0.5,2.2-0.7c1.6-0.2,3.2,0.3,3.9,2.1
			c0.3,0.6,0.3,1.4,0.3,2.5c2-3.6,5-5.9,9.2-6.3c5.7-0.5,10.4,3.1,10.4,10.5c0,8.5-5.5,17.1-13.9,17.9c-4.2,0.4-7.4-1.4-8.9-4.2
			c-0.8,3.9-1.6,7.7-2.4,11.6c-0.6,2.9-1.6,3.9-3.6,4.1c-0.3,0-0.5,0.1-0.8,0.1C439,299.8,437.1,299.2,437.7,296.3z M463.1,271.7
			c0-3.8-2.4-6-5.5-5.7c-2.8,0.3-5.4,2.2-6.9,4.8c-0.3,1.3-0.5,2.7-0.8,4c-0.9,4.3,1.4,7.6,5.8,7.2
			C460.4,281.5,463.1,276.5,463.1,271.7z"/>
		<path class="st0" d="M471.9,292.9c2.4-11.3,4.7-22.7,7.1-34c0.1-0.2,1-0.5,2.2-0.6c1.6-0.1,3.2,0.4,3.9,2.2
			c0.3,0.6,0.3,1.5,0.3,2.5c2-3.5,5-5.8,9.2-6c5.7-0.3,10.4,3.5,10.4,10.9c0,8.5-5.5,16.9-13.9,17.4c-4.2,0.3-7.4-1.6-8.9-4.5
			c-0.8,3.8-1.6,7.7-2.4,11.5c-0.6,2.8-1.6,3.9-3.6,4c-0.3,0-0.5,0-0.8,0.1C473.2,296.5,471.3,295.8,471.9,292.9z M497.3,269.2
			c0-3.8-2.4-6.1-5.5-5.9c-2.8,0.2-5.4,2-6.9,4.6c-0.3,1.3-0.5,2.6-0.8,4c-0.9,4.3,1.4,7.6,5.8,7.3
			C494.6,278.9,497.3,274,497.3,269.2z"/>
		<path class="st0" d="M508.7,273c0-9.7,7.4-17,16.8-17.2c6.8-0.1,10.6,3.1,10.6,7.7c0,5.3-3.6,8.7-15.4,8.9c-1.6,0-3.3,0-5.3-0.1
			c0.1,0.4,0.2,0.8,0.3,1.1c0.2,3.1,2.4,5,6.1,4.9c3.5-0.1,6-1.5,7.8-3.9c0.1-0.2,3.3,0.4,3.3,2.9c0,1.2-0.5,2.1-1.5,3.1
			c-2,2-5.2,3.2-9.8,3.3C513,284.2,508.7,279.6,508.7,273z M520.1,267.9c7.2-0.2,9.4-1.9,9.4-4c0-1.5-1.4-2.8-4.3-2.8
			c-4,0.1-7.3,3-8.8,6.7C517.7,267.9,519,267.9,520.1,267.9z"/>
	</g>
	<g>
		<path class="st0" d="M180.2,170.2c0-0.3,0-0.6,0-0.8c0.1-5.3,0.4-11,1-17c2.7-28.4,9.6-50.6,20.6-66.1c0.1-0.1,0.2-0.3,0.3-0.4
			c0.1,0,0.3,0,0.4,0c4.9-0.2,8-0.5,9.7-0.7c0.5-0.1,1-0.1,1.6-0.2c34.8-4.9,65.1-20.3,73-36.5c-1.8-1.5-3.5-3.1-5.3-4.6
			c-7.6,8.1-37,18.7-56.9,21.9c-0.2,0-0.4,0.1-0.6,0.1c-7.1,1-17.9,0.4-33.8-2c-15.4-2.3-28.3-3-38.3-1.8c-10,1.2-21,4.9-32.7,11
			C107.4,79,97.2,86.5,88.6,95.4c-8.6,8.9-15.6,19.2-20.9,30.7c-5.2,11.5-7.9,23.3-7.9,35c0,16.1,5.3,31.7,15.6,46
			c0.3,0.4,0.6,0.8,0.9,1.2c-0.5,0-1,0.1-1.5,0.1c-16,1.1-29.3,3.2-39.6,6.7c-6.5,2.1-12,4.9-16.2,8.2c-4.3,3.3-7.8,8-10.7,14
			c-2.8,6-4.3,12.8-4.3,20.4c0,7.5,1.8,14.1,5.3,19.5c3.5,5.4,8.2,9.7,14,12.7c11.6,6.1,24.9,8.8,39.4,7.9c23.9-1.4,45.4-8.6,64-21
			c32.4-21.7,50.2-54.3,52.8-95.7c0-0.2,0-0.5,0-0.7c9.1-1.2,18.3-2.4,27.4-3.7c2.9-4.3,5.7-8.6,8.6-12.8
			C203.9,166,192,168.1,180.2,170.2z M179.3,104.8c-2.2,3.8-4.5,8.2-6.7,13.2c-2.3,5-5.1,12.1-8.4,21.1c-3.3,9-5.6,20.1-6.9,33.2
			c0,0.2,0,0.5-0.1,0.7c-0.2,0-0.4,0.1-0.7,0.1c-0.2,0.1-18.7,3.4-25.4,4.4c-5.8,0.9-7.3,4.6-7.2,6.7c0,1.1,0.6,2.3,1.5,2.2
			c0,0,0,0,0,0c5.8-0.7,29.8-3.3,30.1-3.3c0.3,0,0.6-0.1,0.9-0.1c0,0.3-0.1,0.6-0.1,0.9c-4.1,35-14.5,61.6-31,78.6
			c-8,8.3-17.1,14.7-27.1,19c-10,4.3-20.7,6.9-31.8,7.5c-11.2,0.7-21.5-1.2-30.8-5.6c-4.8-2.3-8.7-5.6-11.8-9.9
			c-3.1-4.3-4.6-9.6-4.6-15.8c0-6,1.1-11.6,3.1-16.6c0,0,0,0,0,0c6.4-15,21.2-22.8,43.9-24.2c10.9-0.7,24,2.5,39,9.2
			c1.1-1.6,2.1-3.2,3.2-4.8c-0.3-0.2-1.7-1.1-4.8-3.1c-3.2-2.1-6.7-4.5-10.4-7c-2.9-2.1-5-3.9-6.3-5.1c-1.7-1.7-3.4-3.4-5.2-5.1
			c-2.2-2.2-3.9-4.3-4.8-6.1c-1.1-2.1-2.2-4.3-3.4-6.4c-3.3-6.5-5-15.7-5-27.5c0-12,2.1-23,6.4-32.7c4.2-9.7,10-17.9,17.3-24.2
			c7.2-6.3,15.4-11.5,24.4-15.4c9-3.9,20.1-6.6,33-8.1c13-1.5,26.8,0.1,41.1,4.8c0.3,0.1,0.6,0.2,0.9,0.3c-0.2,0.3-0.4,0.6-0.6,0.9
			C186.9,92.3,183,98.4,179.3,104.8z"/>
		<path class="st0" d="M305.1,151.9c-2.6-2.4-6.1-3.3-10.4-2.7c-4.4,0.7-9.1,2.6-13.9,5.8c-1.8,1.3-3.8,3.1-5.9,5.5
			c-2.2,2.5-4,4.6-5.5,6.4c-1.5,1.8-3.3,4.3-5.3,7.5c-2,3.2-3.6,5.8-4.7,7.7c-1.1,1.9-3.6,6.6-7.4,13.9c-3.8,7.3-6.5,12.9-8,16.6
			c-0.5-0.1-1-0.3-1.5-0.4c0.1-0.3,0.5-1.5,1.4-5.1c0.8-2.9,1.4-5.3,1.9-7c0.5-1.7,1.1-4.2,1.9-7.4c0.8-3.2,1.4-6,1.8-8.3
			c0.4-2.3,0.8-4.7,1.2-7.5c0.3-2.7,0.5-5.8,0.5-9.2c0-3.3-0.9-6-2.8-8.1c-1.8-2.1-4-2.9-6.4-2.5c-5.7,0.8-11.4,4.6-17,11.1
			c-5.8,6.8-18.3,27.3-18.7,29.6c-0.6,3.4,1.3,5,3.1,5.5c1.7,0.4,3.6-0.2,4.3-1.4c1.6-2.8,3.3-6.6,4.4-8.8c0.2-0.4,0.4-0.9,0.6-1.3
			c3.7-7.6,6.9-11.5,9.8-11.9c2.6-0.4,2.9,4.1,2.9,7.5c0,4.8-3.8,20.2-11.5,46.9c-1.3,4.4-2.5,8.8-3.8,13.2
			c5.7-0.8,11.4-1.6,17.1-2.4c1.1-2.4,2.2-4.7,3.3-7.1c7.1-15.2,14.2-28.9,21-40.8c4.3-7.5,8.8-14,13.4-19.4
			c4.8-5.6,8.8-8.6,12.5-9.2c1.8-0.3,3.5,1.3,5.6,4.8c0.6,1.1,1.6,2,3.2,2.8c1.5,0.8,3.7,1,6.5,0.6c2.7-0.4,5.1-2.1,7.2-5.2
			c2.1-3.1,3.2-6.6,3.2-10.4C309,157.4,307.7,154.3,305.1,151.9z"/>
		<path class="st0" d="M358,140.1c-11.5,1.6-22.9,8.2-33.9,19.8c-5,5.3-9.1,11.6-12.3,18.7c-3.1,7.1-4.7,14.3-4.7,21.5
			c0,10.5,3.5,18.8,10.3,24.6c6.8,5.8,15.2,8,24.9,6.6c9.8-1.4,19-4.9,27.3-10.6c8.3-5.6,15-12.9,20.1-21.7c5-8.7,7.6-18.3,7.6-28.5
			c0-10.1-3.7-18.2-11-24C378.9,140.7,369.4,138.5,358,140.1z M369.7,203.7c-1.9,5-4.7,9.3-8.4,12.8c-3.7,3.5-7.7,5.6-11.9,6.2
			c-13.1,1.8-19.8-6.9-19.8-26c0-13,2.9-24.4,8.7-33.7c5.8-9.4,11.8-14.6,17.9-15.4c6.1-0.8,10.8,1.1,14.1,5.8
			c3.2,4.6,4.9,11.8,4.9,21.5C375.2,184.6,373.3,194.2,369.7,203.7z"/>
		<path class="st0" d="M474,131.8c-5.5-2.6-11.9-3.6-19-3c-14.6,1.3-25.6,6.8-32.9,16.1c-3.8,4.8-5.7,10.5-5.7,16.9
			c0.2,4.3,1.8,7.9,4.5,10.6c2.8,2.8,6.2,4.8,10,6c3.8,1.2,7.7,2.4,11.7,3.5c9.7,2.7,14.6,7.2,14.6,13.4c0,9.8-7.8,15.4-23.1,17
			c-7,0.7-12.4-0.4-15.9-3.4c-0.2-0.2-0.5-0.4-0.7-0.6c0.3-0.2,0.6-0.4,0.9-0.6c3.8-2.7,5.7-5.7,5.7-9.1c0-3.4-1.1-5.9-3.2-7.5
			c-2.2-1.6-4.7-2.3-7.5-2c-2.8,0.3-5,1.7-6.7,4.1c-1.7,2.5-2.6,5.5-2.6,9c0,3.5,1.2,6.6,3.5,9.2c2.4,2.7,6.4,4.8,12,6.4
			c5.6,1.6,12.2,2,19.6,1.2c13.9-1.4,25-6.8,32.9-16.2c4.2-4.9,6.3-10.2,6.3-15.8c0-5.6-1.5-10.3-4.4-13.9
			c-2.9-3.7-6.6-6.4-10.7-8.1c-4.3-1.8-8.6-3.3-12.9-4.5c-4.4-1.3-8.1-2.8-11.2-4.4c-3.3-1.8-4.9-4.3-4.9-7.5c0-3.3,2.3-6.1,6.7-8.3
			c4.2-2.1,9-3.5,14.3-3.9c5.4-0.5,9.2,0.1,11.4,1.7c0.3,0.2,0.6,0.4,0.9,0.6c-0.3,0.2-0.6,0.5-0.9,0.7c-3.2,2.5-4.8,5.1-4.8,8.1
			c0,3,0.9,5.2,2.8,6.7c1.9,1.5,4.3,2.2,7.1,1.9c2.8-0.2,5.2-1.4,7.3-3.5c2.1-2.1,3.1-5.5,3.1-10.2C482,137.9,479.4,134.4,474,131.8
			z"/>
		<path class="st0" d="M551.5,127.4C551.5,127.4,551.5,127.4,551.5,127.4c-5.4,0.1-20.7,0.3-20.8,0.3c-0.3,0-0.7,0-1,0
			c0.1-0.3,0.2-0.6,0.2-1c2.4-10.1,7.7-28.5,15.9-54.7c3.4-10.9,5.7-18,6.8-21.6c-4.9-0.4-9.9-0.8-14.8-1.2
			c-9.3,21-18.5,47.4-27.5,78.5c-0.1,0.2-0.1,0.4-0.2,0.6c-7.1,0.3-14.2,0.7-21.3,1.1c1.6,2.6,3.1,5.2,4.7,7.8
			c4.8-0.3,9.6-0.5,14.5-0.8c-0.1,0.3-0.2,0.7-0.3,1C499.9,166,496,186.7,496,199c0,4.7,1,8.5,3,11.4c1.9,2.8,4.7,4.1,8.5,3.9
			c3.8-0.2,8.8-3.2,14.9-8.9c6.3-6,15.4-20.3,18-26.5c1.3-3.1,0.4-4.8-0.9-5.5c-1-0.5-2.4-0.3-3.1,0.8c-2,3.2-12,19.5-18.6,22.9
			c-0.4,0.2-0.8,0.2-1.2,0c-0.4-0.2-1.6-1-1.6-9.6c0-6.1,4-22.9,12.2-51.1c0.1-0.2,0.1-0.4,0.2-0.6c0.2,0,0.4,0,0.6,0
			c0.2,0,16.9-0.3,21.4-0.4c2.6-0.1,3.8-1.6,4.3-2.5c0.8-1.4,0.8-3.2,0.1-4.4C553.4,128,552.8,127.4,551.5,127.4z"/>
	</g>
	<g>
		<g>
			<path class="st0" d="M365.2,37.8c-0.2,0-0.3,0-0.5,0c-2.6-0.2-4.4-2.5-4.2-5.1l2.5-25.4c0.2-2.6,2.5-4.4,5.1-4.2
				c2.6,0.2,4.4,2.5,4.2,5.1l-2.5,25.4C369.6,36,367.6,37.8,365.2,37.8z"/>
		</g>
		<g>
			<path class="st1" d="M411.5,63.3c-0.2,0-0.3,0-0.5,0l-21.9-2.4c-2.6-0.3-4.4-2.6-4.1-5.1c0.3-2.6,2.6-4.4,5.1-4.1l21.9,2.4
				c2.6,0.3,4.4,2.6,4.1,5.1C415.9,61.5,413.9,63.3,411.5,63.3z"/>
		</g>
		<g>
			<path class="st2" d="M396,28.1c-1,0-2-0.3-2.9-1c-2-1.6-2.4-4.5-0.8-6.5l10-12.8c1.6-2,4.5-2.4,6.5-0.8c2,1.6,2.4,4.5,0.8,6.5
				l-10,12.8C398.7,27.5,397.4,28.1,396,28.1z"/>
		</g>
	</g>
	<g>
		<path class="st0" d="M361.4,351h-25.5c-2.6,0-4.7-2.1-4.7-4.7c0-2.6,2.1-4.7,4.7-4.7h25.5c2.6,0,4.7,2.1,4.7,4.7
			C366.1,349,364,351,361.4,351z"/>
	</g>
</g>
</svg>
